<?xml version="1.0" encoding="utf-8"?>
<!-- Generator: Adobe Illustrator 19.0.1, SVG Export Plug-In . SVG Version: 6.00 Build 0)  -->
<svg version="1.1" id="Слой_1" xmlns="http://www.w3.org/2000/svg" xmlns:xlink="http://www.w3.org/1999/xlink" x="0px" y="0px"
	 viewBox="0 0 447.9 431.8" style="enable-background:new 0 0 447.9 431.8;" xml:space="preserve">
<style type="text/css">
	.st0{fill:#222222;}
</style>
<g>
	<path class="st0" d="M110.7,398.5c-7,6.7-13.6,14-21.1,19.9c-6.4,5-13.7,9.5-21.3,12.3c-8.8,3.3-16.9-2.4-19.1-11.7
		c-2.1-8.8-0.2-17.4,2.5-25.5c3.6-10.5,8-20.8,12.4-31c1.3-3,1.2-4.9-1-7.5c-26-31.9-41.3-68.5-45.7-109.4
		c-3-27.1-0.5-53.9,7.2-80.1c1-3.4,0.6-5.6-1.7-8.5C0.1,128.6-6.3,96.7,6.4,62.4c12.7-34.3,38.3-54.9,74.3-61
		c28.6-4.9,54.5,2.9,76.8,21.5c2.5,2,4.5,2.6,7.6,1.7c39.2-11.4,78.5-11.4,117.7-0.1c3,0.9,5.1,0.6,7.6-1.5
		c55.3-46.3,138.4-19,154.8,51.1c7.2,30.6-0.1,58.4-20,82.8c-2.3,2.8-2.8,5-1.8,8.5c18.6,69.3,6.1,132.5-38.1,189.1
		c-2.5,3.2-2.6,5.3-0.9,8.8c6.8,14.1,13.1,28.4,15,44.2c0.1,1.2,0.3,2.3,0.4,3.5c0.6,17.1-11,25-26.4,17.7
		c-11-5.2-19.5-13.8-27.8-22.5c-2.5-2.6-4.9-5.4-7.4-8.1C262.1,442.9,186.4,443,110.7,398.5z M224,63.6
		c-88.5,0-160.2,71.7-160.2,160.1c0,88.4,71.7,160.3,160,160.4c88.5,0.1,160.5-71.8,160.4-160.4C384.2,135.3,312.4,63.6,224,63.6z"
		/>
	<path class="st0" d="M226.1,193.3c2.4-1.5,5.3-2.6,7.3-4.6c18.4-18.2,36.6-36.5,54.8-54.7c5.4-5.4,11.8-7.5,19.2-5
		c6.7,2.3,10.8,7.1,12.1,14c1.3,6.8-1.4,12.3-6.2,17.1c-18.2,18.1-36.3,36.3-54.4,54.4c-4.6,4.6-4.6,13.8,0,18.4
		c10.5,10.5,21,20.9,31.4,31.5c5.3,5.3,6.9,11.7,4.5,18.8c-2.3,6.7-7.2,10.7-14.1,12c-6.4,1.2-11.8-1-16.3-5.6
		c-10.6-10.6-21.1-21.3-31.9-31.7c-1.5-1.5-4.3-2.4-6.4-2.3c-17.7,0.9-33.4-13.3-33.8-30.9c-0.4-18.3,14.8-33.3,33-32.7
		C225.5,192.5,225.8,192.9,226.1,193.3z"/>
	<path class="st0" d="M224.3,96.1c8.4,0.2,15.5,7.4,15.5,15.8c0,8.6-7.4,16-16,15.8c-8.6-0.2-15.9-7.7-15.6-16.3
		C208.6,103,215.9,95.9,224.3,96.1z"/>
	<path class="st0" d="M112,208.1c8.6,0,16,7.5,15.8,16c-0.2,8.5-7.3,15.5-15.8,15.5c-8.6,0-15.9-7.4-15.8-16
		C96.4,215.2,103.6,208.1,112,208.1z"/>
	<path class="st0" d="M351.8,223.7c0.1,8.4-6.9,15.7-15.4,15.9c-8.6,0.2-16-7-16.2-15.6c-0.1-8.4,6.9-15.7,15.4-15.9
		C344.3,207.9,351.7,215,351.8,223.7z"/>
	<path class="st0" d="M239.8,336.1c-0.1,8.4-7.4,15.5-15.8,15.5c-8.7-0.1-15.9-7.4-15.7-16.1c0.1-8.5,7.4-15.5,15.8-15.5
		C232.7,320.2,240,327.5,239.8,336.1z"/>
</g>
</svg>
