<?xml version="1.0" encoding="utf-8"?>
<!-- Generator: Adobe Illustrator 19.0.1, SVG Export Plug-In . SVG Version: 6.00 Build 0)  -->
<svg version="1.1" id="Слой_1" xmlns="http://www.w3.org/2000/svg" xmlns:xlink="http://www.w3.org/1999/xlink" x="0px" y="0px"
	 viewBox="0 0 275.2 460.8" style="enable-background:new 0 0 275.2 460.8;" xml:space="preserve">
<style type="text/css">
	.st0{fill:#222222;}
</style>
<g>
	<path class="st0" d="M86.3,221c4.3,3.4,7.8,6.4,12.1,9.8c-2.9,1.4-4.5,2.2-5.2,2.5c6,12,12.5,23.6,17.6,35.7
		c6.6,15.5,9,31.9,9.6,48.7c1.3,32.9,6.6,65.2,17.1,96.5c0.6,1.7,1.3,3.4,2.2,5.7c7.8-14.6,9.6-29.2,5.6-44.5
		c-0.4-1.4-2.2-2.5-2.5-3.9c-1.1-4.4-1.9-8.9-3.5-13.1c-10.3-26.3-12.6-53.7-10.3-81.6c1.1-13.5,3.5-27,5.4-40.8
		c-1.4-0.3-3.1-0.7-5.3-1.1c2.8-4.5,5.5-8.9,8-13.1c-7-2.7-13.7-5.3-20.7-8.1c30.1-38,21.7-98-13.7-132c19-26.8,56.6-37.6,84.9-10.8
		c16.3,15.5,23.4,35.4,24.7,57.3c1.5,25.5-4.6,49.2-21.3,68.9c-6,7.1-14.4,12.1-21.6,18.1c-1.1,1-2.6,2.8-2.4,3.9
		c5.6,25.2,1.9,49.6-5.7,73.8c-6.8,22-11,44.6-13.5,67.5c-0.3,2.4,0,5,0.8,7.3c6.3,19,5,37.3-4.6,55c-0.9,1.7-0.9,4.6,0,6.3
		c3.5,6.4,7.5,12.5,11.7,19.3c-0.1,0.2-1,1.3-2.7,3.7c-5-7.2-9.6-13.7-14.5-20.6c-9.6,12-21.2,22.4-36.4,29c-0.6-1.5-1.1-2.8-1.7-4
		c0.6-0.5,0.9-1,1.3-1.1c13.2-6.3,24.1-15.5,32.6-27.2c1.1-1.5,1.5-4.4,0.8-6.1c-12.3-33.3-18.1-67.9-19.5-103.1
		c-1.2-29.9-11.3-56.5-27.5-81.2c-1.1-1.6-4.4-1.7-7.5-2.8c0.1-0.9,0.5-3.1,0.8-5.3c0.3-2.3,0.7-4.6,1.1-7.2
		c-0.9-0.1-1.7-0.4-2.4-0.2c-18.1,3.4-33.5-2.5-47.3-13.6C5,186.8-7.4,143.1,4.5,109.7c13.1-36.8,50.7-48.5,82.4-25.5
		c29.8,21.6,44,65,32.5,100C114,200.8,104,213.5,86.3,221z M143.5,352.7c0.3-1.1,0.6-2.2,0.8-3.3c4.5-20.8,8.5-41.6,13.7-62.2
		c4-15.9,7.7-31.7,6.5-48.2c-0.5-6.5-1.6-13.1-2.4-19.5c-6.8,1-12.9,1.9-19.3,2.8c1.8,4.7,3.7,9.6,5.8,14.9
		c-3.1-0.2-5.5-0.4-8.2-0.5C131.7,275.7,129.6,314.3,143.5,352.7z"/>
	<path class="st0" d="M171.5,460.8c-2.4-1-3.6-1.4-4.8-1.9c6.6-30.5,2.6-60.9,1.3-91.3c-0.6-15.5-1.8-31-2-46.4
		c-0.2-20,5.6-38.8,13.1-57.1c5.9-14.6,12.8-28.9,19.3-43.4c-0.9-0.3-2.2-0.8-3.9-1.4c2.8-3.9,5.3-7.6,8.2-11.5
		c-2.5-1-4.8-1.8-6.8-2.6c31.8-46.4,34-92.4-0.4-138.5c20.6-13.5,47.9-8.4,63.9,12.8c15.5,20.5,18.4,43.8,13.5,68.4
		c-3.8,19.2-12.7,35.7-28.1,48.2c-10,8.1-21.5,12.5-34.6,12.3c-0.8,0-1.6,0.1-2.8,0.2c1.4,4.5,2.7,8.7,4.4,14.1
		c-7.4-3.5-8.6,1.9-10.8,6.1c-11.9,23.3-22.6,47.1-28.1,72.9c-3.5,16.4-1.5,32.9-1.1,49.3c0.9,30,1.9,59.9,2.4,89.9
		C174.5,447.1,172.6,453.5,171.5,460.8z"/>
	<path class="st0" d="M104,68.3c0.2-26.5,21.9-57.5,46.2-65.5c18-6,34.2-2.2,48.2,10.6c9.6,8.8,15.4,19.9,18.8,32.9
		c-11.6,1.2-22.2,4.7-31.8,11c-0.8,0.5-2.6,0.3-3.5-0.2c-24.2-15.1-54-10.6-75.5,9.3C105.8,67,105,67.5,104,68.3z"/>
	<path class="st0" d="M88.7,69.8c-15.6-9.4-33-13.2-52.4-8.3c2-14.9,7.6-27.1,20.5-34.6c15.3-8.8,30.3-5.9,44.4,1.5
		C97.1,42.4,93,55.9,88.7,69.8z"/>
</g>
</svg>
