<?xml version="1.0" encoding="utf-8"?>
<!-- Generator: Adobe Illustrator 19.0.1, SVG Export Plug-In . SVG Version: 6.00 Build 0)  -->
<svg version="1.1" id="Слой_1" xmlns="http://www.w3.org/2000/svg" xmlns:xlink="http://www.w3.org/1999/xlink" x="0px" y="0px"
	 viewBox="0 0 388 319.3" style="enable-background:new 0 0 388 319.3;" xml:space="preserve">
<style type="text/css">
	.st0{fill:#222222;}
</style>
<g>
	<path class="st0" d="M40,183.5c102.9,0,205,0,308,0c0-1.9,0-3.8,0-5.7c0-22.8,0-45.7,0-68.5c0-12.2,8.4-21.1,19.8-21.3
		c11.5-0.1,20.2,9,20.2,21.4c0,62.8,0,125.7,0,188.5c0,12.4-8.8,21.5-20.3,21.3c-11.4-0.2-19.6-9.1-19.7-21.4
		c-0.1-13.1,0-26.3,0-39.8c-102.6,0-204.8,0-307.7,0c-0.1,1.4-0.2,3-0.2,4.6c0,11.8,0,23.7,0,35.5c0,12-8.8,21.2-20,21.1
		c-11.4-0.1-20-9.1-20-21.1C0,206,0,113.8,0,21.7C0,9.1,8.5,0.1,20,0c11.6-0.1,20,9.2,20,22.1c0,50.8,0,101.7,0,152.5
		C40,177.4,40,180.2,40,183.5z"/>
	<path class="st0" d="M150.3,165.6c0-27.6,0-54.7,0-82.4c2.7,0,5.2,0,7.6,0c44.7,0,89.3,0,134,0c23.1,0,36.7,13.6,36.8,36.6
		c0,14.8-0.1,29.7-0.1,44.5c0,0.3-0.2,0.6-0.5,1.3C269,165.6,209.8,165.6,150.3,165.6z"/>
	<path class="st0" d="M132.2,87.6c0.1,19.1-15.5,34.8-34.5,34.9C78.6,122.5,63,107,63,87.9c0-19.2,15.3-34.7,34.5-34.8
		C116.6,53,132.1,68.4,132.2,87.6z"/>
	<path class="st0" d="M63.1,165.7c0-6-0.3-11.7,0.1-17.3c0.5-6.7,6.4-13.2,13.4-13.4c18.8-0.5,37.5-0.2,56.6-0.2
		c0,10.4,0,20.5,0,30.9C109.8,165.7,86.7,165.7,63.1,165.7z"/>
</g>
</svg>
