<?xml version="1.0" encoding="utf-8"?>
<!-- Generator: Adobe Illustrator 19.0.1, SVG Export Plug-In . SVG Version: 6.00 Build 0)  -->
<svg version="1.1" id="Слой_1" xmlns="http://www.w3.org/2000/svg" xmlns:xlink="http://www.w3.org/1999/xlink" x="0px" y="0px"
	 viewBox="0 0 479.6 447.6" style="enable-background:new 0 0 479.6 447.6;" xml:space="preserve">
<style type="text/css">
	.st0{fill:#222222;}
</style>
<g>
	<path class="st0" d="M63.6,32c0,11.3-0.1,22.1,0,32.9c0.2,17,11.3,29.8,28,32.4c18.3,2.8,36-12,36.3-30.5c0.2-11.3,0-22.6,0-34.4
		c26.5,0,52.7,0,79.6,0c0,8.2-0.1,16.5,0,24.7c0.1,5.3-0.1,10.8,1,15.9c3.4,15.4,18.8,26.3,33.7,24.6c17.2-2,29.6-15.3,29.7-32.1
		c0.1-11,0-21.9,0-33.3c26.6,0,52.8,0,79.6,0c0,10.8,0,21.4,0,32c0,17.2,10.6,29.9,27.5,32.9c18.3,3.2,36.5-11.6,36.9-30.3
		c0.2-9.7,0-19.3,0-29c0-1.8,0-3.6,0-5.5c19.2-1.7,36.8-0.1,50.6,14.8c8.5,9.2,12.9,20.2,13,32.6c0.1,106.7,0.1,213.3,0,320
		c0,27-21.4,47.7-48.7,47.7c-110,0.1-220,0-330,0c-17.2,0-34.3,0-51.5,0C20.9,447.5,0,426.7,0,398.3c0-105.5,0-211,0-316.5
		C0,52.7,20.7,32.1,49.8,32C54.1,32,58.4,32,63.6,32z M448,159.9c-139.2,0-277.6,0-416.2,0c-0.1,1.8-0.2,3.3-0.2,4.8
		c0,72.8,0,145.6,0,218.5c0,10.3,6.9,16.8,17.5,16.8c126.3,0,252.6-0.1,378.9,0.2c12.9,0,20.2-7.5,20.2-20.1
		c-0.4-70.7-0.2-141.3-0.2-212C448,165.5,448,162.8,448,159.9z"/>
	<path class="st0" d="M80,39.5c0-7.7-0.1-15.3,0-23C80.2,7,87-0.1,95.8,0c8.7,0.1,15.6,6.8,15.7,16.1c0.2,15.8,0.2,31.6,0,47.4
		c-0.1,9.1-7.1,16-15.8,16c-8.6,0-15.4-7-15.7-16.1c-0.1-4,0-8,0-12C80,47.5,80,43.5,80,39.5C80,39.5,80,39.5,80,39.5z"/>
	<path class="st0" d="M224,39.8c0-7.7-0.1-15.3,0-23c0.1-9.8,7-16.9,16-16.8c8.8,0.2,15.5,7.2,15.5,16.8c0.1,15.3,0.1,30.6,0,46
		c-0.1,9.6-6.7,16.6-15.5,16.8c-9,0.1-15.9-7.1-16-16.8c-0.1-3.8,0-7.7,0-11.5C224,47.4,224,43.6,224,39.8z"/>
	<path class="st0" d="M368,39.8c0-7.7-0.1-15.3,0-23c0.1-9.8,7-17,16-16.8c8.9,0.2,15.5,7.2,15.5,16.8c0.1,15.3,0.1,30.6,0,46
		c-0.1,9.8-7,17-16,16.8c-8.8-0.2-15.4-7.3-15.5-16.8c0-3.8,0-7.7,0-11.5C368,47.4,368,43.6,368,39.8z"/>
	<path class="st0" d="M191.4,239.6c-7.3,0-14.7,0.1-22,0c-6.5-0.1-9.4-3-9.4-9.5c0-9.5,0-19,0-28.5c0-6.6,2.9-9.5,9.4-9.5
		c15-0.1,30-0.1,45,0c6.2,0,9.1,3,9.2,9.3c0.1,9.5,0.1,19,0,28.5c0,6.9-2.9,9.7-9.7,9.8C206.4,239.6,198.9,239.6,191.4,239.6z"/>
	<path class="st0" d="M287.9,192c7.3,0,14.7,0,22,0c6.6,0,9.6,2.9,9.6,9.3c0.1,9.7,0.1,19.3,0,29c0,6.2-3.1,9.2-9.2,9.3
		c-15,0.1-30,0.1-45,0c-6.5,0-9.3-3-9.4-9.6c-0.1-9.5-0.1-19,0-28.5c0-6.6,2.9-9.4,9.4-9.5C273,191.9,280.4,192,287.9,192z"/>
	<path class="st0" d="M383.9,239.6c-7.5,0-15,0.1-22.5,0c-6.5-0.1-9.4-2.9-9.4-9.5c-0.1-9.7-0.1-19.3,0-29c0-5.9,3.1-9,8.9-9
		c15.2-0.1,30.3-0.1,45.5,0c6.2,0,9.1,3,9.2,9.2c0.1,9.7,0.1,19.3,0,29c0,6.5-3,9.3-9.6,9.3C398.6,239.6,391.3,239.6,383.9,239.6z"
		/>
	<path class="st0" d="M96,256c7.3,0,14.7-0.1,22,0c6.6,0.1,9.6,3,9.6,9.4c0.1,9.7,0.1,19.3,0,29c-0.1,6.2-3,9.2-9.3,9.2
		c-15,0.1-30,0.1-45,0c-6.3,0-9.2-2.9-9.3-9.1c-0.1-9.8-0.1-19.6,0-29.5c0.1-5.9,3-8.8,9-8.9C80.7,255.9,88.3,256,96,256z"/>
	<path class="st0" d="M191.9,256c7.3,0,14.7,0,22,0c6.6,0,9.6,2.9,9.7,9.3c0.1,9.7,0.1,19.3,0,29c-0.1,6.2-3,9.2-9.2,9.3
		c-15.2,0.1-30.3,0.1-45.5,0c-5.8,0-8.8-3.1-8.9-9c-0.1-9.8-0.1-19.6,0-29.5c0.1-5.9,3-8.9,8.9-9C176.6,255.9,184.3,256,191.9,256z"
		/>
	<path class="st0" d="M287.8,303.6c-7.3,0-14.7,0.1-22,0c-6.9-0.1-9.8-2.9-9.8-9.7c0-9.5,0-19,0-28.5c0-6.5,3-9.4,9.5-9.4
		c14.8-0.1,29.6,0,44.5,0c6.6,0,9.5,2.9,9.5,9.4c0.1,9.7,0.1,19.3,0,29c-0.1,6.2-3,9.1-9.3,9.2C302.8,303.6,295.3,303.6,287.8,303.6
		z"/>
	<path class="st0" d="M383.8,303.6c-7.5,0-15,0.1-22.5,0c-6.3-0.1-9.2-3-9.3-9.2c-0.1-9.8-0.1-19.7,0-29.5c0.1-5.9,3-8.9,9-8.9
		c15.2-0.1,30.3-0.1,45.5,0c6,0,9,3,9,8.9c0.1,10,0.1,20,0,30c-0.1,5.5-3.2,8.6-8.8,8.7C399.1,303.7,391.5,303.6,383.8,303.6
		C383.8,303.6,383.8,303.6,383.8,303.6z"/>
	<path class="st0" d="M95.7,367.6c-7.5,0-15,0.1-22.5,0c-6.2-0.1-9.2-3-9.2-9.2c-0.1-9.7-0.1-19.3,0-29c0-6.2,3-9.3,9.1-9.3
		c15.2-0.1,30.3-0.1,45.5,0c5.9,0,8.9,3,9,8.9c0.1,9.8,0.1,19.7,0,29.5c-0.1,6.2-3,9-9.3,9.1C110.7,367.6,103.2,367.6,95.7,367.6z"
		/>
	<path class="st0" d="M191.7,367.6c-7.5,0-15,0.1-22.5,0c-6.2-0.1-9.1-3-9.2-9.2c-0.1-9.7-0.1-19.3,0-29c0.1-6.3,2.9-9.3,9.1-9.3
		c15.2-0.1,30.3-0.1,45.5,0c5.9,0,8.9,3.1,9,9c0.1,9.8,0.1,19.6,0,29.5c-0.1,6.1-3.1,9-9.4,9.1C206.7,367.6,199.2,367.6,191.7,367.6
		z"/>
	<path class="st0" d="M287.9,367.6c-7.5,0-15,0-22.5,0c-6.2-0.1-9.3-3-9.3-9.1c-0.1-9.8-0.1-19.6,0-29.5c0.1-5.9,3-8.9,9-9
		c15.2-0.1,30.3-0.1,45.5,0c5.9,0,9,3,9.1,8.8c0.1,10,0.1,20,0,30c-0.1,5.6-3.1,8.6-8.7,8.7C303.2,367.6,295.5,367.6,287.9,367.6
		C287.9,367.6,287.9,367.6,287.9,367.6z"/>
</g>
</svg>
