<?xml version="1.0" encoding="utf-8"?>
<!-- Generator: Adobe Illustrator 19.0.1, SVG Export Plug-In . SVG Version: 6.00 Build 0)  -->
<svg version="1.1"
	 id="svg3007" xmlns:cc="http://creativecommons.org/ns#" xmlns:dc="http://purl.org/dc/elements/1.1/" xmlns:rdf="http://www.w3.org/1999/02/22-rdf-syntax-ns#" xmlns:sodipodi="http://sodipodi.sourceforge.net/DTD/sodipodi-0.dtd" xmlns:svg="http://www.w3.org/2000/svg" xmlns:inkscape="http://www.inkscape.org/namespaces/inkscape"
	 xmlns="http://www.w3.org/2000/svg" xmlns:xlink="http://www.w3.org/1999/xlink" x="0px" y="0px"
	 viewBox="-183.3 171.1 434.7 219.7" style="enable-background:new -183.3 171.1 434.7 219.7;" xml:space="preserve">
<style type="text/css">
	.st0{fill:#222222;}
</style>
<path id="path4400-3-2" class="st0" d="M-4.9,171.1c0,0-0.1,0-0.2,0c-0.9,0-4,0.1-5.7,0.5c-1.9,0.4-3.8,1-5.5,2
	c-2.5,1.5-4.6,3.6-6.6,5.8c-1.6,1.8-2.9,3.9-4.2,6c-0.5,0.8-1.2,1.6-1.5,2.5c0,0.1-0.1,0.2-0.1,0.4c-31.3,0.1-62.5,0.3-93.8,1
	c-18.8,0.6-37.2,10.1-47.4,26c-4.4,5.1-7.2,11.2-8.5,17.8c-7.3,19.8-4.2,41.3-4.9,61.9c-0.6,16.4,2.8,33,10.3,47.6
	c8.7,13.6,21.6,25.8,38.2,28.3c23.2,4.8,47.1,2.1,70.6,2.9c11.9,0,23.7,0,35.6,0c0,0.1,0.1,0.2,0.1,0.2c0.3,0.9,1,1.7,1.5,2.5
	c1.3,2,2.6,4.2,4.2,6c1.9,2.2,4.1,4.3,6.6,5.8c1.7,1,3.6,1.6,5.5,2c1.7,0.4,4.8,0.5,5.7,0.5c0.4,0.1,0.8,0,1.1-0.2
	c0.3-0.2,0.4-0.4,0.4-0.9c0.1-0.5,0-0.7-0.3-1.9c-0.3-1.2-1.1-3.3-1.9-5.2s-2.2-4.6-3.1-6.2c-0.6-1.1-1-1.9-1.5-2.6
	c15.4,0,30.8,0,46.3,0c0.1,0.1,0.1,0.1,0.2,0.2c0.4,0.4,0.9,0.9,1.9,1.2c1,0.3,1,0.3,4,0.4s10.6,0.1,12.8,0s2.6-0.2,3.7-0.6
	c0.9-0.3,1.5-0.5,1.7-1.2c23.5,0,47,0,70.5-0.1c0.9,0.3,1.1,0.2,3.9,0.4c3,0.1,10.6,0.1,12.9,0c1.8-0.1,2.4-0.2,3.2-0.4
	c19.4-0.1,38.8-0.3,58.2-0.6c13.6,0,27.1-8.4,31.6-21.5c11.6-28.7,11.4-60.5,10.2-91c-1.5-19.9-4.1-40.9-14.9-58.1
	c-9.7-13.7-28.3-14.1-43.5-14c-14.3-0.1-28.6-0.2-42.9-0.2c-0.5-0.1-1.1-0.1-2.1-0.2c-2.2-0.1-9.9-0.2-12.9,0
	c-2,0.1-2.6,0.1-3.2,0.2c-18.3,0-36.6,0-54.9,0c-5.4,0-10.9,0-16.3,0.1c-0.1-0.7-0.8-0.9-1.7-1.2c-1.1-0.4-1.5-0.5-3.7-0.6
	s-9.8-0.2-12.8,0c-3,0.1-3.1,0.1-4,0.4s-1.5,0.8-1.9,1.2c-0.1,0.1-0.2,0.2-0.2,0.3c-15.4,0-30.8,0-46.3,0.1c0.5-0.8,1-1.6,1.6-2.7
	c0.9-1.7,2.3-4.3,3.1-6.2c0.8-1.9,1.6-4,1.9-5.2c0.3-1.2,0.4-1.4,0.3-1.9c-0.1-0.5-0.2-0.7-0.4-0.9c-0.2-0.1-0.5-0.2-0.7-0.2
	C-4.8,171.1-4.8,171.1-4.9,171.1L-4.9,171.1z M47.7,188.2c0.6,0,1.2,0,1.8,0c-0.9,0-1.8,0-2.7,0C47.2,188.2,47.5,188.2,47.7,188.2z
	 M209.3,195.5c4-0.1,8.5,0.5,10.9,1.7c5.9,3,9.5,7.7,10.9,14.3c0.5,2.2,1.5,5.3,2.4,7c2.5,5,4.9,12.3,4.7,14.5l-0.2,2l-2-1.9
	c-1.1-1-3-4-4.1-6.5c-6.8-14.9-15.8-23.5-29.6-28.4c-1.2-0.4-1.2-0.5-0.1-1.3C203.5,196.1,206.2,195.6,209.3,195.5L209.3,195.5z
	 M-5,196.8c1.3,0,2.8,0,4.4,0c10.9,0,29.1,0.3,48.2,0.7l13.6,0.3l5.3,8.3c2.9,4.6,5.4,8.7,5.5,9.3c0.2,1,0.1,1-4.1,0.9
	c-2.4,0-8.5-0.2-13.7-0.4c-14.5-0.5-36.9-2.9-51.1-5.3l-5.7-1l-1.8-2.8c-1-1.6-2.9-4.3-4.1-6.1c-1.3-1.8-2.4-3.4-2.5-3.7
	C-11.1,196.9-8.9,196.8-5,196.8L-5,196.8z M-132.6,197.3c1,0,2.2,0,3.6,0c14.4,0.1,17,1.2,11.5,4.9c-3.2,2.2-23.7,14.6-32.1,19.5
	c-7.1,4.1-9.9,6.5-13,11.1c-1.3,1.8-3.2,3.8-4.3,4.3c-2.1,1-5.3,1.3-6,0.5c-0.2-0.2-0.4-2-0.4-4c0-3.9,1.2-6.7,5.4-13.4
	c3.5-5.5,10.2-13.2,14.3-16.2c2.1-1.5,6-3.7,8.8-4.8C-140.5,197.5-139.9,197.3-132.6,197.3L-132.6,197.3z M84.9,198.1
	c1.6,0,4.2,0.1,8.3,0.2c33.7,0.8,55.6,1.6,55.9,1.9c0.5,0.5,1.7,8.2,1.7,10.5c0,3.6,0.3,3.5-12.2,4.2c-8.4,0.4-40.1,1.4-47.6,1.5
	c-0.7,0-1.5-1.5-4.7-8.4c-2.1-4.6-3.9-8.8-4.1-9.2C82,198.3,82.2,198.1,84.9,198.1L84.9,198.1z M169.3,202.9c0.7,0,1.6,0,2.8,0.1
	c4.5,0.4,15.2,1.9,15.8,2.2c1.3,0.8-5.2,3.1-13.2,4.7c-5.9,1.2-6.6,1.3-8.1,0.7c-1.4-0.5-1.6-2.2-0.8-4.8
	C166.5,203.7,167.1,203,169.3,202.9z M-69.5,206.7c1.9,0,55,11.7,64.2,14.1c6.2,1.6,17.6,5.5,25.3,8.6c17.6,7,26.6,9.3,35.4,9.3
	c6.8,0,7.1,0.2,12.7,6.1l5.7,6.1v30.2v30.3l-5.6,5.9l-5.5,5.9l-10.8,0.6c-8.5,0.5-13.2,1.6-22.4,5.2c-23,8.9-37.9,13.3-65.8,19.3
	c-15.6,3.3-29.5,6.3-31,6.7c-2.2,0.5-3.2-0.3-5.1-4c-2.9-5.7-9.3-25.7-11.1-34.8c-4-20-3.7-55.7,0.6-73.2
	C-78.8,226.6-71.4,206.7-69.5,206.7L-69.5,206.7z M215.7,213c3.4-0.2,4.4,2.8,8.1,9.7c10.1,18.9,13.1,35.1,12.2,65
	c-0.7,23.5-2.7,32.5-10.9,49c-7.1,14.4-7.3,14.5-17.7,9.5c-4.7-2.3-11.8-5.3-15.7-6.8c-3.9-1.5-7.1-2.9-7.1-3.1c0-0.3,1.9-4.3,4.3-9
	c7.4-14.6,9.8-26.3,9.7-46.8c-0.1-20.5-2.2-30.8-9.7-45.5c-2.5-4.9-4.3-9-4.1-9.2c0.2-0.2,7.5-3.4,16.3-7.2
	C209,215.1,213.1,213.1,215.7,213L215.7,213z M-171.5,323.9c0.5,0,1.1,0,1.8,0.2c3.7,0.9,4.2,1.3,7.3,5.5c3.7,5,5.7,6.7,14.8,12
	c13.5,7.8,31.6,19.1,32.2,20.2c1.4,2.3-0.3,2.6-12.7,2.8c-10.3,0.1-12.2,0-15-1c-9.4-3.4-16.8-9.8-23.9-20.3
	c-5.2-7.8-6.4-10.6-6.4-14.9C-173.4,325.2-172.9,324-171.5,323.9L-171.5,323.9z M238,327.1l0.2,1.8c0.2,2.1-2.4,10.2-4.6,14.2
	c-0.8,1.5-1.9,4.7-2.4,7.1c-2.1,10.2-10,16.5-20.3,16.3c-2.1,0-4.6-0.3-5.6-0.5c-1-0.2-2.4-0.8-3.1-1.1c-1.1-0.6-1.1-0.7,0.6-1.4
	c8-3.2,12.4-5.9,16.6-10.1c5-5,8.2-9.6,12.3-17.9c1.6-3.2,3.6-6.4,4.5-7.1L238,327.1z M90,345.7l8.7,0.1c10.6,0.1,31.4,0.8,42.7,1.5
	c6.7,0.4,8.4,0.6,8.8,1.2c0.8,1,0.7,4.8-0.2,9.4l-0.8,3.9l-2,0.3c-1.9,0.3-24.6,1-51.9,1.5c-9.5,0.2-13.4,0.1-13.3-0.2
	c0.1-0.3,1.9-4.4,4.1-9.1L90,345.7L90,345.7z M64.3,345.9c4.7,0,7.7,0.2,7.7,0.6c0,0.6-9.6,16.1-10.6,17.2
	c-0.5,0.5-11.7,0.8-60.2,1.6l-12.7,0.2l1.8-2.5c1-1.4,3-4.3,4.4-6.5c1.6-2.5,3-4.1,3.5-4.2c4.9-1.1,23.8-3.6,35.5-4.7
	C44.1,346.5,56.5,345.9,64.3,345.9L64.3,345.9z M168.9,351.2c1.8,0,4.4,0.5,7.9,1.3c8.8,2,13.2,3.9,10.3,4.6
	c-2.8,0.6-11.1,1.6-15.2,1.9l-4.4,0.3l-0.9-1.4c-0.5-0.8-1-2.2-1.2-3.1C164.9,352.2,165.8,351.2,168.9,351.2L168.9,351.2z"/>
</svg>
