<?xml version="1.0" encoding="utf-8"?>
<!-- Generator: Adobe Illustrator 19.0.1, SVG Export Plug-In . SVG Version: 6.00 Build 0)  -->
<svg version="1.1" id="Слой_1" xmlns="http://www.w3.org/2000/svg" xmlns:xlink="http://www.w3.org/1999/xlink" x="0px" y="0px"
	 viewBox="0 0 479.9 479.8" style="enable-background:new 0 0 479.9 479.8;" xml:space="preserve">
<style type="text/css">
	.st0{fill:#222222;}
</style>
<g>
	<path class="st0" d="M243.9,0c1.7,0.5,3.4,1.1,5.2,1.6c13.3,4.1,22.6,16.5,22.6,30.3c0,13.6-8.9,25.8-22.1,30.1
		c-1.2,0.4-2.5,0.8-3.9,1.8c1.6,0.1,3.3,0.3,4.9,0.3c16.5,0,33,0,49.5,0c20.7,0,32.2,9.8,35.6,30.2c0.1,0.5,0.3,0.9,0.6,2.1
		c6,0,12.2-0.6,18.2,0.1c6.7,0.8,10.8,5.4,12.9,13.2c3.4-12.6,8.9-22.3,17.5-30.2c32-29.6,83.4-14.2,93.3,28
		c3.4,14.4,1.4,28.9-1,43.2c-11.1,67.4-53.7,106.6-115.8,127.8c-11.6,4-23.8,6.1-35.7,9.3c-2,0.5-4.1,1.5-5.6,2.9
		c-8.5,7.9-18,14.1-28.5,19.1c-13.1,6.2-19.7,16.9-20,31.4c-0.1,4.8,0.2,9.7-0.1,14.5c-0.6,8.6,3,15.5,10.1,19.3
		c9.4,5.1,19.6,8.8,29.6,12.8c2.9,1.2,6.1,1.6,9.2,2.3c10.2,2.4,15.2,8.6,15.2,19.2c0,2,0,4,0,6.8c4.8,0,9.4,0,14,0
		c11.7,0.1,17.9,6.3,18,17.9c0,9.5,0,19,0,28.5c-0.1,10.6-6.5,17.2-17.2,17.2c-73.8,0-147.7,0-221.5,0c-10.3,0-16.8-6.6-16.9-16.9
		c-0.1-10-0.1-20,0-30c0.1-9.9,6.8-16.5,16.7-16.6c4.8-0.1,9.6,0,15.3,0c0-2.5,0-4.7,0-7c0.1-10.6,5-16.4,15.4-19.1
		c8.8-2.3,17.6-4.8,26.2-8.1c5.2-2,10.1-5.1,14.6-8.5c5.5-4.1,8.3-9.8,7.9-16.9c-0.3-5.2,0-10.3-0.1-15.5
		c-0.3-14.3-6.9-24.9-19.7-31.1c-10.8-5.2-20.6-11.4-29.3-19.7c-1.3-1.3-3.4-2-5.3-2.4c-34.2-6.7-66.4-18.2-94.3-39.8
		C26.3,222.3,7.5,188.2,2.1,146.7c-1.7-12.9-3.4-25.9-0.4-38.8c5.8-24.9,26.7-42.4,52-43.6c24.6-1.2,48.3,14.8,56.4,38.2
		c0.7,2,1.4,3.9,2.4,6.8c2.2-7.3,6.2-11.9,13-12.7c5.9-0.7,11.9-0.1,18.2-0.1c0.4-2.2,0.8-3.9,1.2-5.6c3.1-15.9,15.3-26.4,31.6-26.6
		c17.3-0.2,34.7,0,52,0c2,0,3.9,0,7.3,0c-4.7-1.9-8.2-3-11.3-4.7c-11-6.1-17.7-19.3-15.9-31.1c2.1-13.9,11.2-24.2,24.3-27.3
		c1.1-0.3,2.1-0.8,3.2-1.1C238.6,0,241.3,0,243.9,0z M346.7,250.5c6.1-2.2,10.8-3.8,15.4-5.5c56-21.6,86.4-65.6,86-124.2
		c0-6.3-1.8-11.8-5.9-16.5c-8.9-10.3-24.2-11.4-34.4-2.4c-10.4,9.2-11,24.3-1.3,35.2c6.8,7.7,6.8,16.9,0,23.1
		c-6.6,6.1-16.4,5.3-23.2-1.8c-6.5-6.8-11.4-14.7-14.4-23.7c-0.4-1.1-1-2.1-2-4.3C365.3,171.7,361.9,211.4,346.7,250.5z
		 M132.9,249.9c-15-38.6-18.4-78.3-20.1-118.7c-0.7,0.7-1,0.8-1.1,1.1c-0.3,0.8-0.6,1.5-0.9,2.3c-3.3,9.8-8.6,18.4-16.2,25.4
		c-9.2,8.4-23.6,3.6-26.1-8.5c-1.2-6.1,1.4-10.8,5.5-15.3c7.7-8.5,8.4-20.1,2.3-29.5c-5.8-8.8-16.6-12.9-26.6-10.1
		c-10.9,3.1-18,12.3-17.8,23.7c0.2,8.5,0.7,17,1.9,25.3C41.2,197.9,77.9,233.8,132.9,249.9z M239.9,448.2
		C239.9,448.2,239.9,448.2,239.9,448.2c8.5,0,17,0,25.4,0c4.5,0,6.8-2.1,6.8-6.6c0-6.3-0.1-12.6,0-19c0-4.5-2-6.8-6.6-6.8
		c-17.1,0-34.3,0-51.4,0c-4.6,0-6.6,2.4-6.5,6.9c0.1,6.2,0,12.3,0,18.5c0.1,5.3,1.8,7,7.3,7.1C223.3,448.2,231.6,448.2,239.9,448.2z
		"/>
</g>
</svg>
