<?xml version="1.0" encoding="utf-8"?>
<!-- Generator: Adobe Illustrator 19.0.1, SVG Export Plug-In . SVG Version: 6.00 Build 0)  -->
<svg version="1.1" id="Слой_1" xmlns="http://www.w3.org/2000/svg" xmlns:xlink="http://www.w3.org/1999/xlink" x="0px" y="0px"
	 viewBox="0 0 280.1 312.3" style="enable-background:new 0 0 280.1 312.3;" xml:space="preserve">
<style type="text/css">
	.st0{fill:#222222;}
</style>
<g>
	<path class="st0" d="M40.5,29.7c0-10.2,0-19.8,0-29.7c66.3,0,132.5,0,199,0c0,9.8,0,19.5,0,29.7c10.1,0,20.2,0,30.3,0
		c8.1,0,10.4,2.3,10.2,10.5c-0.9,43.7-21.8,74.6-60.1,94.6c-2.8,1.5-5.5,4.2-7.1,7c-11.5,21-26,39-47.8,50.2
		c-1.2,0.6-2.6,2.3-2.7,3.6c-0.3,5.6-0.1,11.3-0.1,17.5c6.7,0,12.9,0,19.6,0c0,9.3,0,18.1,0,27.4c5.7,0,10.9,0,16.7,0
		c0,14.9,0,29.3,0,44.4c19.4,0,38.3,0,57.5,0c0,9.4,0,18.2,0,27.4c-77.4,0-154.6,0-232.2,0c0-8.8,0-17.6,0-27.2c18.9,0,37.8,0,57,0
		c0-14.9,0-29.2,0-44c5.6,0,10.9,0,16.8,0c0-9.4,0-18.3,0-27.7c6.9,0,13.1,0,19.9,0c0-6.4,0.1-12.1-0.1-17.9c0-1-1.2-2.4-2.2-2.8
		c-23-11.4-38-30.3-49.5-52.5c-1-2-3.2-3.7-5.3-4.7C28.6,119,7.4,94.3,1.5,58C0.5,51.4,0.2,44.7,0,38.1c-0.2-5.5,2.8-8.3,8.3-8.3
		C19,29.7,29.6,29.7,40.5,29.7z M53.9,113.5c-4.3-22.4-8.6-45.1-12.9-68.1c-7.8,0-16.3,0-24.8,0C14.7,69.8,31.6,99.9,53.9,113.5z
		 M239.1,45.2c-4.4,23-8.7,45.7-13,68c23.4-13.9,39.2-44.6,37.5-68C255.2,45.2,246.7,45.2,239.1,45.2z"/>
</g>
</svg>
