<?xml version="1.0" encoding="utf-8"?>
<!-- Generator: Adobe Illustrator 19.0.1, SVG Export Plug-In . SVG Version: 6.00 Build 0)  -->
<svg version="1.1" id="Слой_1" xmlns="http://www.w3.org/2000/svg" xmlns:xlink="http://www.w3.org/1999/xlink" x="0px" y="0px"
	 viewBox="0 0 426 501.1" style="enable-background:new 0 0 426 501.1;" xml:space="preserve">
<style type="text/css">
	.st0{fill:#222222;}
</style>
<g>
	<path class="st0" d="M426,71.6c-1.7,10-2.7,20.1-5.2,29.9c-4.6,18.3-10.1,36.4-15.2,54.7c-0.6,0-1.2-0.1-1.8-0.1
		c-2.5-7.5-5.3-14.9-7.5-22.5c-0.5-1.7,0.6-3.8,1.1-5.8c4.7-20.7,9.9-41.4,14-62.2c1.3-6.5,0.6-13.6-0.5-20.3
		c-1.4-8.3-7.2-11.1-14.8-7.4c-4.9,2.3-9.8,5.3-13.6,9.1c-7.7,7.5-14.7,15.7-22,23.7c-15.9-12.3-32.8-25.2-49.9-38.4
		c0.1-0.1,0.6-1.1,1.5-1.8c24.4-20.6,52.4-27.1,83.5-21.2c15.2,2.9,23.3,13.2,27.3,27.3c1.4,4.9,2.2,10,3.2,15
		C426,58.3,426,65,426,71.6z"/>
	<path class="st0" d="M0,51.6c0.7-3.2,1.3-6.5,2-9.7C6,21.2,15.3,11.3,35.9,8.3c28.7-4.2,54.8,2.6,77.3,21.5c1,0.8,2.1,1.6,2.7,2
		C98.5,45.3,81.5,58.3,64.6,71.4c-6.5-10.9-15-20-24.9-27.8c-3-2.3-6.3-4.4-9.8-5.9c-7.7-3.3-13.9-0.6-14.7,7.6
		c-1,9.3-1.2,19.1,0.5,28.2c3.6,18.7,8.8,37.2,13.2,55.7c0.5,2.3,0.5,4.9-0.1,7.1c-1.9,6.5-4.3,12.9-6.9,20.4
		c-0.9-2.2-1.5-3.4-1.9-4.6C10.9,126.8,3.2,101,0.8,73.9c-0.1-0.8-0.5-1.5-0.8-2.3C0,65,0,58.3,0,51.6z"/>
	<path class="st0" d="M215.6,501c-44,0-88,0-132,0c-16.5,0-32.1-3.4-46-12.6c-17.2-11.4-26.8-27.4-26.6-48.1
		c0.4-31.6,0.5-63.4,2.7-94.9c2.2-31.5,5.8-63,10.6-94.2c6.6-43.1,18-85,39-123.6c8.7-16,19.4-30.6,32-43.9
		c10.3-10.8,22.3-18.3,37-21.3c2.4-0.5,4.5-0.9,4.8-4.4c2.6-31.4,17.9-49,48.7-55.4c20.6-4.3,41.2-3.5,61,4.1
		c23.1,8.8,35.8,25.7,38,50.3c0.2,2.2,0,4.3,3.1,4.7c28.9,3.9,46.5,23.5,62,45.6c21.5,30.6,33.8,65.1,42.9,101
		c8.9,35.4,14,71.5,17.3,107.9c3.7,40.2,4.5,80.5,5.2,120.8c0.7,41.2-34.4,64.4-63.7,64.2C306.2,500.8,260.9,501,215.6,501
		C215.6,501,215.6,501,215.6,501z M223.4,469.7c1.6,0.2,2.2,0.4,2.9,0.4c31.3,0,62.7,0.1,94,0c19.2-0.1,42.5-17.2,42.1-43.9
		c-0.7-39.3-0.3-78.7-0.1-118c0.1-17.1-7.6-29.9-20-40.6c-4.5-3.9-10-5.9-16.1-5.9c-75.5,0-151,0-226.5,0.1c-3.8,0-8.2,0.9-11.4,2.9
		c-14.8,8.9-24.1,22-24.4,39.4c-0.6,41.2-0.1,82.3-0.2,123.5c0,11.9,4.9,21.2,13.8,28.7c11.6,9.7,25.2,13.9,40.2,13.9
		c26.5,0,53,0,79.5,0c1.6,0,3.2-0.2,5.2-0.3c0-7.4-0.3-14.4,0.1-21.4c0.1-2.6,1.1-6,3-7.4c4.1-3.1,9.1-2.8,13.8-0.9
		c4.3,1.7,4.1,5.7,4.1,9.4C223.5,456.1,223.4,462.7,223.4,469.7z M360.7,230.8c-0.6-4.7-1-8.7-1.7-12.6
		c-7.2-42.3-24.8-79.2-57-108.4c-44-39.8-104.3-46.6-154.6-17.2C114,112.2,92,141.5,78,177.1c-6.8,17.1-11,34.8-12.6,53.4
		c6.8,0,13.2,0,19.5,0c0.3-0.7,0.6-1.1,0.7-1.6c0.2-1.3,0.4-2.6,0.6-3.9c5.4-36.1,19.2-68.3,45.5-94.1c29.8-29.3,65.4-42,106.9-32
		c35.4,8.5,60.4,31.2,78.8,61.8c12.3,20.4,19.4,42.6,22.7,66.1c0.2,1.4,1.9,3.7,3.1,3.8C348.7,231,354.4,230.8,360.7,230.8z
		 M249.4,55.3c-2.2-24.2-21.1-40.6-44.3-38.6c-18.2,1.6-34,20.4-32.7,38.6C198.1,55.3,223.8,55.3,249.4,55.3z"/>
	<path class="st0" d="M213.5,282.8c34.5,0,69,0,103.4,0c3,0,6,0.3,8.9,1c13.4,3.1,20.6,12.9,18.5,26.5c-1.7,11-3.4,22.2-7.1,32.6
		c-6.3,17.5-14.2,34.4-21.4,51.5c-3.5,8.2-9.7,13.7-17.2,18.2c-12.9,7.8-27.2,11.8-42,13.6c-39.1,4.7-78.1,4.3-116.8-3.9
		c-8.3-1.8-16.6-5.1-24.1-9.1c-4.2-2.2-8.2-6.8-9.9-11.2c-10.4-26.3-19-53.2-23.3-81.3c-0.5-3-0.7-6-1-8.9c-1.6-17.1,9-28.9,26.3-29
		C143.2,282.7,178.3,282.8,213.5,282.8z"/>
</g>
</svg>
