<?xml version="1.0" encoding="utf-8"?>
<!-- Generator: Adobe Illustrator 19.0.1, SVG Export Plug-In . SVG Version: 6.00 Build 0)  -->
<svg version="1.1" id="Слой_1" xmlns="http://www.w3.org/2000/svg" xmlns:xlink="http://www.w3.org/1999/xlink" x="0px" y="0px"
	 viewBox="0 0 863 440" style="enable-background:new 0 0 863 440;" xml:space="preserve">
<style type="text/css">
	.st0{fill:#222222;}
	.st1{fill:#91AA3F;}
	.st2{fill:#FFFFFF;}
</style>
<g>
	<polygon class="st0" points="154.3,317.3 154.3,276.3 113.4,276.3 134.6,230.9 123.6,231.8 144.9,188.3 133.1,188.3 175.6,112.1 
		218.1,188.3 206.3,188.3 227.6,231.3 216.6,231.4 237.8,276.3 193.3,276.3 193.3,317.3 	"/>
	<polygon class="st1" points="204.6,223.3 215.5,223.9 194.4,180.3 205.3,180.3 175.6,127.1 145.9,180.3 156.8,180.3 135.7,223.4 
		146.6,223.8 125.3,269.3 161.3,269.3 161.3,309.3 185.3,309.3 185.3,269.3 225.9,269.3 	"/>
</g>
<g>
	<polygon class="st0" points="268.3,279.3 268.3,224.3 213.1,224.3 241.7,163.1 226.9,164.3 255.6,105.3 239.7,105.3 297.2,2.4 
		354.5,105.3 338.7,105.3 367.3,163.7 352.6,163.7 381.2,224.3 321.3,224.3 321.3,279.3 	"/>
	<polygon class="st1" points="336.4,152.6 351.1,153.3 322.6,94.3 337.3,94.3 297.2,22.3 257,94.3 271.7,94.3 243.2,152.8 
		257.9,153.1 229.2,214.3 279.3,214.3 279.3,269.3 311.3,269.3 311.3,214.3 365.1,214.3 	"/>
</g>
<g>
	<polygon class="st0" points="702.3,289.3 702.3,235.3 647.4,235.3 675.6,174.8 661,175.7 689.3,117.3 673.7,117.3 730.4,15.8 
		786.9,117.3 771.3,117.3 799.5,175 785,175.3 813.2,235.3 754.3,235.3 754.3,289.3 	"/>
	<polygon class="st1" points="769,164.4 783.5,165.3 755.4,107.3 769.9,107.3 730.3,36.3 690.7,107.3 705.2,107.3 677.1,164.8 
		691.6,165 663.2,225.3 712.3,225.3 712.3,279.3 744.3,279.3 744.3,225.3 797.3,225.3 	"/>
</g>
<g id="Дома">
	<g>
		<g id="Дом_2_">
			<polyline class="st0" points="334,165 274,165 429.4,0 550.2,36.4 550.2,23.3 577.9,15 613.3,25.7 613.3,58.9 713.3,165 
				530.9,165 			"/>
			<path class="st2" d="M432.5,46l102.7,109h154.9l-86.8-92.2V33.1l-25.4-7.7l-17.6,5.3v19.1L432.5,11.4L297.1,155h32.6"/>
			<polygon class="st0" points="577.9,27.7 601.1,34.7 601.1,79.4 577.9,79.4 			"/>
		</g>
		<g>
			<g>
				<rect x="435" y="91.8" class="st2" width="29.1" height="29.1"/>
				<rect x="400.9" y="91.8" class="st2" width="29.1" height="29.1"/>
			</g>
			<g>
				<rect x="435" y="125.9" class="st2" width="29.1" height="29.1"/>
				<rect x="400.9" y="125.9" class="st2" width="29.1" height="29.1"/>
			</g>
		</g>
	</g>
	<g>
		<g id="Дом_1_">
			<polyline class="st0" points="202.7,268 142.6,268 298.1,103 418.9,139.4 418.9,126.3 446.6,118 482,128.6 482,161.8 582,268 
				399.6,268 			"/>
			<path class="st2" d="M301.2,148.9l102.7,109h154.9L472,165.8v-29.7l-25.4-7.7l-17.6,5.3v19.1l-127.8-38.5L165.8,258h32.6"/>
			<polygon class="st0" points="446.6,130.7 469.8,137.7 469.8,182.3 446.6,182.3 			"/>
		</g>
		<g>
			<g>
				<rect x="303.7" y="194.8" class="st2" width="29.1" height="29.1"/>
				<rect x="269.6" y="194.8" class="st2" width="29.1" height="29.1"/>
			</g>
			<g>
				<rect x="303.7" y="228.9" class="st2" width="29.1" height="29.1"/>
				<rect x="269.6" y="228.9" class="st2" width="29.1" height="29.1"/>
			</g>
		</g>
	</g>
	<g>
		<g id="Дом">
			<polygon class="st0" points="406.7,268 570.7,94 691.5,130.4 691.5,117.3 719.1,109 754.5,119.6 754.5,152.8 863,268 			"/>
			<path class="st2" d="M573.7,139.9l102.7,109h154.9l-86.8-92.2v-29.7l-25.4-7.7l-17.6,5.3v19.1l-127.8-38.5L438.4,249H471"/>
			<polygon class="st0" points="719.1,121.7 742.3,128.7 742.3,173.3 719.1,173.3 			"/>
		</g>
		<g>
			<g>
				<rect x="576.2" y="185.8" class="st2" width="29.1" height="29.1"/>
				<rect x="542.1" y="185.8" class="st2" width="29.1" height="29.1"/>
			</g>
			<g>
				<rect x="576.2" y="219.9" class="st2" width="29.1" height="29.1"/>
				<rect x="542.1" y="219.9" class="st2" width="29.1" height="29.1"/>
			</g>
		</g>
	</g>
</g>
<g>
	<rect y="268" class="st1" width="863" height="172.1"/>
	<g>
		<path class="st0" d="M57.8,385.4c-7.1,0-12.4-1.7-15.7-5c-3.3-3.3-5-8.5-5-15.5v-34.5c0-7.6,1.7-13,5.2-16.5
			c3.4-3.4,9-5.1,16.6-5.1h39.2v15.3H63.2c-4.4,0-6.5,2.2-6.5,6.5v34.7c0,1.7,0.5,3,1.5,4c1,1,2.3,1.5,4,1.5c1.4,0,3,0,4.8,0
			c1.8,0,3.7,0,5.7,0s3.9,0,5.9,0c2,0,3.9-0.3,5.8-0.9c4.4,0,9,0,13.7,0V384c-4.9,0.9-9.7,1.4-14.5,1.4c-4.1,0-8.5,0-13.1,0
			C65.8,385.4,61.6,385.4,57.8,385.4z"/>
		<path class="st0" d="M164.5,368.8c0,5.4-1.5,9.7-4.6,12.8c-3.1,3.1-7.4,4.6-12.8,4.6H122c-5.4,0-9.7-1.5-12.8-4.6
			c-3.1-3.1-4.6-7.4-4.6-12.8v-25.1c0-5.4,1.5-9.7,4.6-12.8c3.1-3.1,7.4-4.6,12.8-4.6h25.1c5.4,0,9.7,1.5,12.8,4.6
			c3.1,3.1,4.6,7.4,4.6,12.8V368.8z M145.5,345.3c0-2.9-1.5-4.4-4.4-4.4H128c-2.9,0-4.4,1.5-4.4,4.4v21.8c0,2.9,1.5,4.4,4.4,4.4
			h13.1c2.9,0,4.4-1.5,4.4-4.4V345.3z"/>
		<path class="st0" d="M173.3,344.7c0-5.4,1.5-9.7,4.6-12.7c3.1-3.1,7.4-4.6,12.8-4.6h34.9v14.7h-28.9c-2.9,0-4.4,1.4-4.4,4.3v21.1
			c0,1.1,0.4,2,1.1,2.7c0.7,0.7,1.6,1.1,2.7,1.1c2.8,0,6,0,9.4,0c3.4,0,6.6-0.1,9.6-0.4c3.5-0.3,7-0.7,10.5-1V384
			c-4.1,0.6-8.2,0.9-12.3,0.9c-3.6,0.7-7.4,1-11.6,1c-4.2,0-8.2,0-12,0c-4.9,0-8.9-1.5-11.9-4.4c-3-3-4.5-6.9-4.5-11.8V344.7z"/>
		<path class="st0" d="M273,348.6v-21.2H292v57.8H273v-21.8h-19.6v21.8h-19.1v-57.8h19.1v21.2H273z"/>
		<path class="st0" d="M361.8,368.8c0,5.4-1.5,9.7-4.6,12.8c-3.1,3.1-7.4,4.6-12.8,4.6h-25.1c-5.4,0-9.7-1.5-12.8-4.6
			c-3.1-3.1-4.6-7.4-4.6-12.8v-25.1c0-5.4,1.5-9.7,4.6-12.8c3.1-3.1,7.4-4.6,12.8-4.6h25.1c5.4,0,9.7,1.5,12.8,4.6
			c3.1,3.1,4.6,7.4,4.6,12.8V368.8z M342.7,345.3c0-2.9-1.5-4.4-4.4-4.4h-13.1c-2.9,0-4.4,1.5-4.4,4.4v21.8c0,2.9,1.5,4.4,4.4,4.4
			h13.1c2.9,0,4.4-1.5,4.4-4.4V345.3z"/>
		<path class="st0" d="M429.3,369.9c0,2.2-0.4,4.2-1.2,6c-0.8,1.9-1.9,3.5-3.3,4.8c-1.4,1.4-3.1,2.5-5.1,3.2c-2,0.8-4.2,1.1-6.7,1.1
			h-41.4v-57.8h38.1c2.5,0,4.7,0.4,6.7,1.1c2,0.8,3.7,1.8,5.1,3.2c1.4,1.3,2.5,2.9,3.3,4.7c0.8,1.8,1.2,3.7,1.2,5.7
			c0,3.1-0.8,5.7-2.3,8c-1.5,2.3-3.7,3.8-6.4,4.6c3.3,0.6,6.1,2.2,8.4,4.8C428.1,362,429.3,365.5,429.3,369.9z M407,344.3
			c0-1.1-0.4-2-1.1-2.7c-0.7-0.7-1.6-1.1-2.7-1.1h-12.5v9.8h12.5c1.1,0,2-0.4,2.7-1.1c0.7-0.7,1.1-1.6,1.1-2.7V344.3z M410.3,366.6
			c0-1.1-0.4-2-1.1-2.7c-0.7-0.7-1.6-1.1-2.7-1.1h-15.8v9.3h15.8c1.1,0,2-0.4,2.7-1.1c0.7-0.7,1.1-1.6,1.1-2.7V366.6z"/>
		<path class="st0" d="M437,385.1v-57.8H456v18h21.2c4.9,0,8.9,1.5,11.9,4.5c3,3,4.5,6.9,4.5,11.9v7.1c0,4.9-1.5,8.9-4.5,11.9
			c-3,3-6.9,4.5-11.9,4.5H437z M470.7,371.5c1.1,0,2-0.4,2.7-1.1c0.7-0.7,1.1-1.6,1.1-2.7v-4.8c0-1.1-0.4-2-1.1-2.7
			c-0.7-0.7-1.6-1.1-2.7-1.1H456v12.4H470.7z M519.8,385.1h-19.1v-57.8h19.1V385.1z"/>
		<path class="st0" d="M568.3,327.4h20.2v57.8h-19.1v-31.6l-18.5,31.6h-20.2v-57.8h19.1V359L568.3,327.4z M553.6,321.9
			c-9.4,0-14.2-4.7-14.2-14.2v-3.3h14.2v2.7c0,1.1,0.4,2,1.1,2.7c0.7,0.7,1.6,1.1,2.7,1.1h3.3c1.1,0,2-0.4,2.7-1.1
			c0.7-0.7,1.1-1.6,1.1-2.7v-2.7h14.2v3.3c0,9.4-4.7,14.2-14.2,14.2H553.6z"/>
		<path class="st0" d="M687.6,306.1l1.6,15.3l-33.8,3.8c-3.6,0.4-5.4,2.3-5.4,5.5v6.6c2.1-0.4,4.2-0.8,6.4-1.1
			c1.9-0.3,3.9-0.6,6-0.8c2.1-0.2,4.2-0.3,6-0.3h4.9c4.9,0,8.9,1.5,11.9,4.5c3,3,4.5,6.9,4.5,11.9v17.4c0,5.4-1.5,9.7-4.6,12.8
			c-3.1,3.1-7.4,4.6-12.8,4.6h-24c-5.4,0-9.7-1.5-12.8-4.6c-3.1-3.1-4.6-7.4-4.6-12.8v-38.7c0-5.2,1.8-9.6,5.3-13.2
			c3.5-3.6,8.3-5.7,14.3-6.4L687.6,306.1z M666.3,371.5c2.9,0,4.4-1.4,4.4-4.3v-13.5c0-1.1-0.4-2-1.1-2.7c-0.7-0.7-1.6-1.1-2.7-1.1
			h-3.8c-1.5,0-3.1,0-4.6,0c-1.6,0-3,0.1-4.2,0.3c-1.5,0.3-2.9,0.6-4.2,0.9v16.1c0,2.9,1.5,4.3,4.4,4.3H666.3z"/>
		<path class="st0" d="M757.3,368.8c0,5.4-1.5,9.7-4.6,12.8c-3.1,3.1-7.4,4.6-12.8,4.6h-25.1c-5.4,0-9.7-1.5-12.8-4.6
			c-3.1-3.1-4.6-7.4-4.6-12.8v-25.1c0-5.4,1.5-9.7,4.6-12.8c3.1-3.1,7.4-4.6,12.8-4.6h25.1c5.4,0,9.7,1.5,12.8,4.6
			c3.1,3.1,4.6,7.4,4.6,12.8V368.8z M738.3,345.3c0-2.9-1.5-4.4-4.4-4.4h-13.1c-2.9,0-4.4,1.5-4.4,4.4v21.8c0,2.9,1.5,4.4,4.4,4.4
			h13.1c2.9,0,4.4-1.5,4.4-4.4V345.3z"/>
		<path class="st0" d="M786.2,385.1v18.5h-19.1v-76.3H784l1.1,5.4c1.9-1.2,3.9-2.3,6.1-3.3c1.9-0.8,4-1.5,6.3-2.2
			c2.3-0.7,4.7-1,7.2-1h4.9c4.9,0,8.9,1.5,11.9,4.5c3,3,4.5,6.9,4.5,11.9v25.1c0,5.4-1.5,9.7-4.6,12.8c-3.1,3.1-7.4,4.6-12.8,4.6
			H786.2z M786.2,370.4h16.3c2.9,0,4.4-1.5,4.4-4.4v-20.2c0-1.1-0.4-2-1.1-2.7c-0.7-0.7-1.6-1.1-2.7-1.1h-3.8
			c-1.4,0-2.8,0.1-4.4,0.3s-2.9,0.5-4.2,0.8c-1.5,0.3-3,0.7-4.5,1.1V370.4z"/>
	</g>
</g>
</svg>
