<?xml version="1.0" encoding="utf-8"?>
<!-- Generator: Adobe Illustrator 19.0.1, SVG Export Plug-In . SVG Version: 6.00 Build 0)  -->
<svg version="1.1" id="Слой_1" xmlns="http://www.w3.org/2000/svg" xmlns:xlink="http://www.w3.org/1999/xlink" x="0px" y="0px"
	 viewBox="0 0 1187.4 440" style="enable-background:new 0 0 1187.4 440;" xml:space="preserve">
<style type="text/css">
	.st0{fill-rule:evenodd;clip-rule:evenodd;fill:#91AA3F;}
	.st1{display:none;fill-rule:evenodd;clip-rule:evenodd;fill:#1F1F1F;}
	.st2{display:none;}
	.st3{display:inline;}
	.st4{fill-rule:evenodd;clip-rule:evenodd;fill:#839C52;}
	.st5{fill-rule:evenodd;clip-rule:evenodd;fill:#9EA771;}
	.st6{fill-rule:evenodd;clip-rule:evenodd;fill:#60621E;}
	.st7{display:none;opacity:0.5;fill-rule:evenodd;clip-rule:evenodd;fill:#CECFCE;}
	.st8{fill-rule:evenodd;clip-rule:evenodd;fill:#1F1F1F;}
	.st9{fill-rule:evenodd;clip-rule:evenodd;fill:#FFFFFF;}
	.st10{fill:#1F1F1F;}
	.st11{display:inline;fill:#1F1F1F;}
	.st12{font-family:'RussoOne';}
	.st13{font-size:120px;}
</style>
<rect y="267.3" class="st0" width="1187.4" height="172.7"/>
<rect x="-110.2" y="-351.5" class="st1" width="1297.6" height="806.8"/>
<g class="st2">
	<g class="st3">
		<g>
			<polygon class="st4" points="-688.9,-1032.2 -690.2,-1030.4 -683.9,-1032.2 -689.1,-1043.5 -691,-1055.4 -693.5,-1044.4 
				-697.1,-1032.2 -702.2,-1036.6 -702.7,-1019.9 -710.2,-1016.3 -716.9,-1027.2 -722.9,-1028.8 -721.8,-1017.3 -727.4,-1009.8 
				-720.5,-1002.3 -717.6,-997.7 -713.8,-988.5 -705.7,-996.9 -693.9,-987.7 -690.9,-987.6 -691,-995.4 -676.8,-989.5 
				-663.6,-990.9 -661.4,-1000.7 -651.1,-1006.8 -658.5,-1010.6 -657.7,-1009.3 -653.5,-1017.7 -657.1,-1023.1 -664.8,-1027.3 
				-673.7,-1016.5 -681.8,-1011.9 -677.9,-1024.9 -681.8,-1039.1 			"/>
		</g>
		<g>
			<polygon class="st4" points="-695.2,-988.9 -698.4,-984.1 -713.7,-985.3 -728.6,-989 -740.9,-998.3 -753.9,-1004.6 -747,-992.6 
				-758.3,-986 -747.1,-978.4 -744.7,-965.3 -730.1,-966.4 -715.1,-964.9 -707.3,-969.4 -698.1,-965.7 -698.9,-966.7 -693.3,-969.2 
				-687.2,-965 -680.9,-969.9 -672.1,-955.6 -661.5,-966.7 -650.8,-948.9 -641.6,-961 -634.7,-969.3 -631.8,-981.8 -641.8,-984.1 
				-653.6,-975.3 -667.5,-975.8 -682.5,-974.9 -691.4,-984.8 -694.4,-986.5 			"/>
		</g>
		<g>
			<polygon class="st4" points="-700,-966.9 -709.4,-957.7 -721,-947.7 -736.5,-938.3 -752.7,-945 -761.8,-959.4 -760.3,-942.5 
				-775.2,-933.2 -762.1,-923.9 -751.3,-927 -751.1,-910.3 -735,-918.1 -729,-927.1 -723.1,-926 -717.6,-926.6 -702.3,-928.3 
				-692.9,-945.7 -686.4,-930.3 -681.2,-921.6 -671.6,-922.7 -663.8,-912.3 -651.6,-913.5 -639.9,-914 -636.8,-927.9 -615.1,-929.1 
				-613.9,-932.9 -618.2,-935.5 -630.9,-929.3 -644.1,-935.4 -659,-927.3 -669.5,-939.3 -681,-945.9 -697.6,-958.2 -693.2,-967.5 
							"/>
		</g>
		<g>
			<polygon class="st4" points="-710.7,-933.5 -695.7,-945.5 -699.5,-927.9 -702.9,-913.3 -687.7,-903.5 -679.8,-885 -658.6,-893.7 
				-648.8,-877 -632.8,-888.8 -622,-875.6 -626.8,-872.5 -643.5,-876 -623.9,-866.9 -641.3,-849.2 -647,-862.3 -658.8,-861.1 
				-669.9,-869.3 -678,-871.7 -689.6,-876.2 -704.4,-878.9 -707.2,-883.7 -720.3,-892.1 -721.8,-870.5 -735.3,-869.8 -742.2,-871.8 
				-754.3,-867 -760.6,-873.4 -770.2,-878.9 -782.7,-881.9 -788.4,-890.6 -788,-903.1 -781.5,-899.3 -765.2,-906.3 -750.3,-897.5 
				-753.9,-905.3 -740.5,-901.2 -726.5,-901.6 -712.3,-904.3 -709.8,-918.6 			"/>
		</g>
		<g>
			<polygon class="st4" points="-701,-887.5 -712.6,-891 -713.5,-868.6 -714.3,-853.7 -722.3,-846.4 -735.4,-840.3 -748.5,-847 
				-759.4,-855.7 -773.3,-853.9 -775.7,-842.2 -790.3,-851.1 -783.7,-844.5 -785.4,-835 -773.9,-835.2 -764.9,-831.7 -758.5,-826.6 
				-748.3,-816.6 -740.3,-828 -727.7,-833 -721.9,-845.3 -700.2,-849 -706.8,-828.3 -692,-823.8 -698,-843 -695,-857.1 
				-683.3,-850.9 -680.8,-841.1 -668,-830.8 -669.8,-829.5 -658.7,-826.5 -650.5,-820.9 -639,-827.2 -630.5,-825.7 -624.6,-836 
				-627.7,-840.3 -644.1,-843.5 -645.4,-849.2 -661.5,-839.5 -679.2,-839.2 -695.3,-849.3 -698.4,-866.9 			"/>
		</g>
		<g>
			<polygon class="st4" points="-700.7,-824.9 -706.6,-826.8 -717.7,-821.9 -730.5,-819.9 -719.3,-818.7 -705.9,-822.7 
				-705.9,-810.7 -699.3,-805.5 -698.8,-817.6 -678.1,-814.7 -690.3,-820.7 			"/>
		</g>
		<g>
			<polygon class="st4" points="-706.3,-808.9 -713.8,-802.1 -722.7,-793.4 -732.1,-780.6 -747.1,-788.3 -760,-797.3 -777.1,-792.8 
				-796.1,-789.3 -799.3,-791.6 -816.7,-788.9 -797.5,-783.2 -809.1,-767.9 -793.1,-759.4 -782.3,-777.5 -777.1,-761.4 
				-769.2,-762.7 -753.3,-761 -744.7,-775.8 -727.9,-768.1 -725.7,-779.1 -720.5,-789.8 -720.3,-779.2 -709.9,-785.3 -702.2,-808.3 
				-694.9,-787.3 -697.6,-773.4 -694.9,-766.3 -694.2,-767.1 -695.6,-782.6 -699.2,-800.8 -687.2,-787 -683.5,-788.3 -669.2,-763.9 
				-671.9,-762.6 -653.5,-753.2 -650.9,-757.2 -638.1,-751.1 -631.7,-765.1 -618.5,-757.2 -618.9,-779.7 -638.5,-781 -642.4,-771.7 
				-657,-780.1 -670.6,-788.8 -686.1,-792.6 -697.9,-803.4 			"/>
		</g>
		<g>
			<polygon class="st4" points="-702.5,-767.5 -717.5,-763.4 -703.2,-765.7 -700.4,-752.6 -702,-738.4 -708.2,-726.8 -721.1,-726.3 
				-726.9,-724.8 -714.8,-731 -703.8,-731.9 -705.9,-717.1 -698.7,-701.7 -700.8,-686.1 -718.4,-681.6 -702.9,-678.9 -695,-686.8 
				-693.1,-690.6 -684.3,-685.7 -676,-683.9 -685,-691.1 -691.3,-697.5 -696,-696.5 -695.9,-708.9 -695.6,-721.7 -682.6,-712.6 
				-668.1,-711.7 -680.1,-719.5 -671.1,-716.5 -684.5,-722 -694.9,-729.1 -690.5,-745.7 -695.2,-762.2 -686.5,-750.9 -678.1,-751.3 
				-685.5,-760.3 -693.4,-767.8 -695.3,-763.5 			"/>
		</g>
		<g>
			<path class="st4" d="M512.5,225.8l-2.9,19.5l18.3,5.3l-19.3-5.2l1.2,17.2l-13.7,0.4l5.3-1.5l-3-16.2l2.4-15.9l9.1-5.3
				L512.5,225.8z M484.5,264.6l1.3-1.8l0.2-0.8L484.5,264.6z"/>
		</g>
	</g>
</g>
<g class="st2">
	<g class="st3">
		<g>
			<polygon class="st5" points="-377.5,-1118.5 -377.8,-1117.7 -377.4,-1118.7 -376.7,-1126.3 -373.2,-1132.6 -370.4,-1130.3 
				-374.1,-1124 -373.3,-1116.9 -367.3,-1121.3 -369.2,-1116.8 -368.9,-1110 -363.5,-1108.8 -357.5,-1111.9 -354.7,-1118.4 
				-355,-1114.5 -354.7,-1108.1 -350,-1102.7 -356.6,-1100.7 -357,-1094.2 -359.5,-1091.4 -366.3,-1095.9 -367.7,-1088.1 
				-373.9,-1085.3 -375.1,-1087.5 -374.1,-1093.8 -380.9,-1087.2 -387.8,-1087.9 -393.6,-1088.4 -399.3,-1090.8 -397.8,-1095.2 
				-404.8,-1100.6 -399.4,-1100.9 -399.8,-1101.6 -403.4,-1107.9 -400,-1111.6 -395.5,-1115.7 -389.7,-1113.2 -387.8,-1107.6 
				-382.6,-1103.7 -384.6,-1113.4 -382.2,-1122.6 			"/>
		</g>
		<g>
			<polygon class="st5" points="-372.2,-1088.6 -370.4,-1086.4 -363.5,-1085.1 -356.1,-1084.9 -347.8,-1084.5 -343.2,-1091.9 
				-335.1,-1093.5 -332,-1098.6 -336.1,-1092.3 -330.8,-1088.4 -332.4,-1086 -334,-1079.9 -338.7,-1076.2 -343.8,-1072.4 
				-350.7,-1072.7 -357.1,-1075.6 -360.4,-1073.8 -364,-1070.6 -369.6,-1072.4 -370.2,-1067.9 -372.4,-1070.3 -378.5,-1068.1 
				-384.3,-1072.8 -388.8,-1063.9 -397.4,-1067.9 -401.9,-1062.2 -411.6,-1060.6 -416.9,-1068.6 -412.3,-1079.4 -418.6,-1079.1 
				-422.6,-1086.6 -413.5,-1082.1 -406.7,-1077.4 -397.7,-1081.5 -390.7,-1080.6 -382.2,-1078.7 -373.2,-1082.7 -377.7,-1089.4 			
				"/>
		</g>
		<g>
			<polygon class="st5" points="-368,-1074.5 -372.4,-1062 -360.7,-1065.3 -355.8,-1060.5 -349.9,-1053.7 -342.6,-1061.6 
				-334.9,-1054.3 -328.1,-1058 -323.4,-1064 -321.3,-1059.7 -321.2,-1057 -324.7,-1049.6 -326.1,-1048.1 -327.7,-1045.7 
				-332.2,-1042.9 -334.9,-1038.3 -340.5,-1037.9 -345.4,-1040.8 -347.5,-1044.6 -354.5,-1041.4 -360.6,-1050 -365.7,-1041.8 
				-372.4,-1046.9 -372.7,-1057.3 -371.7,-1047.5 -378,-1044.2 -384.8,-1042.4 -388.7,-1043.1 -392.8,-1036.4 -398.3,-1036.1 
				-404.3,-1030.9 -408.6,-1029.2 -416.2,-1033.5 -414.1,-1042.5 -424.7,-1038.9 -429.2,-1045.5 -426.9,-1052.1 -419.6,-1048.2 
				-411.9,-1051.3 -403.8,-1046.3 -395.2,-1046.1 -391.6,-1057 -383.8,-1058.6 -377.6,-1062.4 -373.2,-1067.9 -374.8,-1073.3 			"/>
		</g>
		<g>
			<polygon class="st5" points="-370.7,-1045.8 -371.7,-1052.6 -370.5,-1048.4 -369.5,-1041.7 -372.2,-1035.3 -369,-1025.3 
				-380.7,-1027.4 -381.3,-1015.7 -391.9,-1020.8 -397.7,-1017.4 -403.7,-1013.8 -410.8,-1015 -417.8,-1015.4 -422.9,-1007.5 
				-425.2,-1008.6 -418.6,-1013 -415.5,-1007.1 -419,-1005.9 -424.3,-998.4 -414.2,-989.4 -408.1,-996.4 -408.5,-998.3 
				-401.2,-995.7 -391.9,-993.3 -390.7,-1001.2 -380.1,-997.7 -375.1,-1012.9 -369.8,-1007.5 -369.6,-1021.7 -363.5,-1016 
				-356.1,-1013.7 -357,-1006.1 -348.6,-1003.2 -342.5,-996.4 -342.4,-1008.8 -335.8,-996.2 -327.8,-1005.1 -319.5,-1003.2 
				-319,-1008.8 -313.6,-1010.8 -312.4,-1015.5 -306.8,-1020 -306.2,-1024.7 -305.9,-1032.9 -313.1,-1029.6 -319.6,-1027.3 
				-325.6,-1022.6 -326.9,-1022.1 -330.4,-1024.2 -337.8,-1024.6 -344.8,-1020.8 -351.7,-1031 -355.7,-1033.8 -367.7,-1031.4 
				-362.5,-1041.1 			"/>
		</g>
		<g>
			<polygon class="st5" points="-369.1,-1017.8 -360.8,-1020.5 -361.3,-1007.4 -367.5,-999.3 -362.7,-991.5 -357.3,-987.4 
				-349.9,-986.9 -342.9,-977.2 -336.7,-987.9 -329.9,-989.7 -320.5,-988.9 -320,-991 -318.8,-988.1 -308.9,-995.5 -304.6,-988.1 
				-311,-986.7 -311.3,-980.5 -311.8,-971.2 -318.3,-980.5 -319.5,-969.7 -327.5,-969.8 -336,-964.9 -341.2,-974 -345.4,-980.8 
				-352.6,-983 -359.7,-982.8 -368.4,-989.6 -364.4,-981.4 -360.4,-971.8 -370,-973.9 -364.3,-981.1 -363.3,-988.5 -366.8,-996.4 
				-370.9,-990.3 -380.7,-990.6 -383.3,-984.5 -381.9,-980.1 -386.3,-974.9 -386.1,-977 -389.9,-975.2 -399,-974.8 -402,-975.6 
				-409.3,-972.1 -412.4,-972 -416.4,-974.7 -421.9,-973.2 -427.2,-978.9 -419.9,-976.2 -413.8,-988.3 -409.3,-977.9 -414.1,-987 
				-408.1,-989.8 -400.3,-988.6 -392.7,-983.1 -385.4,-987.8 -379.1,-992 -375,-997.8 -368.8,-1001.7 -362.9,-1008.5 			"/>
		</g>
		<g>
			<polygon class="st5" points="-370,-974.6 -364.6,-975.5 -359.7,-971.9 -354,-970.3 -348.3,-967.3 -352.8,-969.7 -359.2,-968.2 
				-364.1,-970.4 -365.9,-962.8 -371,-958 -370.9,-967.4 -376.9,-966.2 -384.7,-966.6 -376.3,-969.5 			"/>
		</g>
		<g>
			<polygon class="st5" points="-365.6,-962.7 -365.9,-953.1 -357,-951.5 -348.6,-953.2 -344.9,-941.4 -336.1,-949.1 -330.9,-949.7 
				-324.3,-950 -318.6,-954.5 -311.3,-953.1 -304.1,-947.9 -301.7,-952.2 -296.5,-944 -293.5,-945.4 -303.3,-943.9 -300.1,-935 
				-297.2,-926.8 -306.5,-928.1 -308.7,-930.6 -311.5,-928.2 -318.5,-928.9 -326.4,-935.9 -327.5,-921.9 -338.9,-925.7 
				-339.7,-939.6 -341,-939.5 -350.9,-941 -357.8,-951 -357.9,-938.5 -356.5,-950.5 -362.4,-952.7 -369.6,-960.9 -365,-949.3 
				-371.9,-942.3 -372.5,-937.5 -375.8,-936.4 -376.3,-932.1 -366.1,-938.4 -376.3,-946.8 -368.8,-955.7 -371.3,-945.6 
				-378.2,-945.9 -380.3,-943.2 -386.6,-935.2 -391.2,-931 -391.9,-929.2 -392.5,-922.6 -402.3,-920.1 -405,-932.1 -413.4,-929.2 
				-414.7,-926.4 -413.8,-933.2 -423,-925.4 -422.6,-930.3 -419.4,-933.1 -413.6,-941.1 -416.2,-946 -407.4,-935.9 -401.4,-941.4 
				-396.7,-949.1 -388.2,-945.8 -380.4,-945.8 -378.2,-956 -368.1,-954 			"/>
		</g>
		<g>
			<polygon class="st5" points="-367.9,-936.4 -362.1,-932 -357.4,-926.7 -361.4,-929.7 -364.7,-930.3 -369.1,-924.9 -365.4,-918.3 
				-368.3,-911.6 -361.5,-907.3 -354.7,-903 -348.3,-902.7 -355.3,-901.7 -362.6,-902.5 -366.1,-906.9 -370,-899.2 -367.5,-891.2 
				-370.4,-883.1 -367.9,-875.1 -361.6,-869.2 -356.7,-872.7 -367,-871.1 -371.9,-876.5 -373.2,-878.3 -380.9,-875.3 -386.3,-872.8 
				-377.9,-874.7 -371.5,-881.4 -373.7,-882.1 -376,-890.8 -374.5,-899.3 -377.9,-893.7 -385.1,-892.2 -391.3,-889.8 -385.7,-894.3 
				-390.4,-895 -382.9,-896.8 -378.1,-900.9 -371.8,-904.9 -374.9,-912.9 -372,-920.6 -372.7,-928.4 -376.5,-922.7 -383.1,-921.3 
				-385.9,-922.9 -378.7,-925.8 -372.8,-931.1 -374.3,-932.8 			"/>
		</g>
		<g>
			<polygon class="st5" points="-373.9,-874.7 -373,-867.7 -375.1,-861.2 -378.5,-854.3 -386.2,-853.5 -380.1,-854.2 -376.7,-858.5 
				-375,-851.4 -370.4,-843.2 -372.2,-834.7 -382,-834.7 -377.7,-837.7 -374.3,-833.4 -376.4,-826.6 -374.2,-819.4 -375.3,-812.2 
				-376,-804.9 -372.1,-797.8 -374.9,-788.1 -365.1,-791.4 -361.6,-790.2 -362.9,-795.3 -358.5,-803.4 -364.3,-810.3 -360.8,-818.2 
				-363.2,-825.5 -363,-833.1 -364.7,-840.5 -363.7,-847.5 -360.1,-849.6 -358.3,-852.4 -365.6,-849.7 -362.7,-857.2 -369.8,-864.4 
				-370.1,-869.9 			"/>
		</g>
	</g>
</g>
<g class="st2">
	<g class="st3">
		<g>
			<polygon class="st6" points="-560.5,-1233 -559.3,-1237 -558.9,-1236.7 -558.7,-1243.6 -558.1,-1250.6 -553.3,-1256.3 
				-550.2,-1262.2 -542.4,-1258.8 -543,-1250.5 -542,-1242.3 -547.2,-1233.3 -537.5,-1241.3 -537.8,-1237.4 -534.2,-1229.6 
				-538.2,-1222.5 -536.3,-1217.9 -529.5,-1218.5 -522.9,-1222.5 -519.9,-1229.1 -517.2,-1236.7 -511.8,-1231.9 -517.5,-1226.5 
				-519.6,-1218.6 -512.3,-1217.1 -510.3,-1210.9 -515.3,-1207.9 -522.4,-1206.6 -518.3,-1196.8 -520.6,-1192.5 -525.4,-1185.8 
				-532.8,-1189.2 -535.3,-1196.1 -536,-1189.9 -540.9,-1183.8 -548.1,-1186.8 -551.4,-1185.5 -548.4,-1195.3 -555.7,-1187.5 
				-562.9,-1186 -568.8,-1180.5 -576,-1184.3 -583,-1184.6 -588.6,-1188.9 -587.3,-1194.7 -585.8,-1200.1 -592.4,-1202 
				-596.2,-1207.6 -595,-1213.9 -588.8,-1213 -587.1,-1214.1 -591,-1218 -595.5,-1219.7 -596.2,-1224.5 -589.3,-1228.6 
				-585.1,-1225.2 -583.7,-1232.2 -578.9,-1228.5 -574.1,-1224.2 -571,-1218.8 -567.4,-1218.8 -560.7,-1214.8 -561.1,-1222.5 
				-567.6,-1228.1 -561.8,-1235.1 -560.4,-1236.7 			"/>
		</g>
		<g>
			<polygon class="st6" points="-552,-1182.7 -542.3,-1186.8 -535.9,-1177.9 -529.4,-1186.1 -522.2,-1184.1 -516.6,-1189.2 
				-511.5,-1194.1 -503.1,-1192.3 -494.9,-1192.5 -490.9,-1199.1 -481.4,-1199.4 -480,-1209.2 -472.3,-1200.6 -476.1,-1197.2 
				-477.7,-1189.3 -468.3,-1186.1 -474.7,-1180 -479.9,-1175.1 -487.7,-1174.8 -485.4,-1168.7 -493,-1168.6 -495.7,-1161.5 
				-501.6,-1153.7 -509.3,-1156.6 -516.7,-1157.4 -524.8,-1156.7 -530.6,-1168.5 -526.2,-1153.2 -535.5,-1157.6 -536.4,-1164.2 
				-542.6,-1165.7 -546.2,-1158 -552.2,-1155.4 -556.1,-1160.8 -562.9,-1160.2 -569.2,-1159.1 -566.4,-1151.2 -573.9,-1149.6 
				-583.2,-1157.2 -587.5,-1152.1 -594.2,-1152.9 -597.7,-1140.7 -604.9,-1150.4 -607.3,-1155.3 -615.3,-1160.2 -616.6,-1164.4 
				-618.1,-1172.1 -630.3,-1172.9 -626.6,-1183 -617.8,-1180.5 -611.9,-1175.5 -606.4,-1169.6 -597.3,-1174.4 -591.3,-1168.9 
				-583.5,-1173.5 -577.2,-1176.5 -570.4,-1174.2 -565.2,-1177.5 -559,-1181.4 -547.8,-1179.6 -553.3,-1182.2 			"/>
		</g>
		<g>
			<polygon class="st6" points="-546.6,-1153.4 -548.8,-1150.3 -537.3,-1148.3 -533,-1141.8 -526.7,-1137.7 -518.4,-1139.9 
				-511.4,-1139.9 -504.2,-1145 -497.8,-1131.6 -490.2,-1131.1 -482.4,-1130.8 -479.7,-1147 -474.1,-1148.9 -461.3,-1142.3 
				-462,-1144.2 -463.8,-1137.4 -461.5,-1136.7 -470.2,-1124.3 -464.6,-1122.7 -468.2,-1119.9 -469.3,-1107.2 -479.3,-1106.9 
				-480.2,-1113.1 -491.2,-1111 -492.4,-1109.7 -496.5,-1093.1 -505.5,-1100 -509.2,-1108.9 -506.6,-1111.1 -505,-1107.4 
				-517.3,-1109.3 -521.3,-1114.8 -520.3,-1114.2 -529.5,-1107.1 -538.9,-1117 -542.8,-1124.5 -543.1,-1132.8 -542.6,-1124.3 
				-549.6,-1119.2 -556.2,-1121.9 -561.4,-1116.6 -566.6,-1113 -568.1,-1110.1 -575.9,-1106.2 -569.8,-1102.1 -583.5,-1104.1 
				-584.8,-1094.8 -588.1,-1104.5 -596.4,-1103.1 -602.7,-1100.5 -608,-1088.7 -614.2,-1098.3 -620.1,-1102.4 -620.1,-1108.5 
				-625,-1112.3 -629.1,-1118.4 -633.6,-1119.8 -645.4,-1120.9 -634.8,-1127.4 -628.7,-1122.6 -621.5,-1126.3 -614.9,-1120.1 
				-607.7,-1114.7 -601.1,-1122.4 -595.2,-1128.5 -588.5,-1128.2 -581.2,-1127.5 -578.3,-1136.3 -564.4,-1127.6 -560.8,-1135.3 
				-553.8,-1139.2 -550.9,-1146.9 -555.2,-1158.4 -543.4,-1164.3 			"/>
		</g>
		<g>
			<polygon class="st6" points="-545.2,-1117.2 -537.4,-1128 -543.4,-1134.8 -544.1,-1126.4 -543.1,-1119.9 -544.9,-1113.2 
				-546.6,-1106.4 -544,-1100.6 -549,-1098.1 -551.5,-1091.3 -554.3,-1083.9 -557.5,-1076 -565,-1073.8 -573,-1073.6 
				-578.2,-1067.2 -587.8,-1074 -592.3,-1062.9 -598.7,-1059 -606.6,-1063 -611.8,-1053.5 -620.8,-1062.6 -629,-1066.5 
				-632.2,-1053.2 -631,-1053.4 -624.2,-1066.2 -616.9,-1055.4 -606.5,-1058.6 -619.8,-1057.2 -612.4,-1042 -629.2,-1043 
				-624.1,-1027.6 -613.2,-1032 -609.1,-1040.9 -597,-1035.6 -596,-1046.9 -601.1,-1037.1 -591.1,-1029.6 -583.5,-1036.1 
				-580,-1042.6 -575.3,-1055.3 -569.5,-1041.8 -561.5,-1044.2 -552.7,-1046.9 -549.3,-1061.4 -546.3,-1053.5 -536.4,-1057.5 
				-540.5,-1077.2 -529.9,-1075.1 -526.6,-1061.6 -519.5,-1067.3 -513.1,-1060.7 -511.5,-1053.7 -509.5,-1045.6 -500.9,-1048.8 
				-500.1,-1049.5 -497.1,-1058.8 -482.3,-1054.5 -480.7,-1038.3 -471.4,-1041.3 -465.4,-1047.6 -463.4,-1054.4 -464,-1065.5 
				-453.4,-1064.8 -445,-1053.1 -436.7,-1060.4 -449.9,-1068.5 -444.5,-1075.2 -444.9,-1086.6 -429.1,-1081.4 -437.2,-1090.4 
				-445,-1090.5 -451.4,-1084.4 -457.1,-1076.4 -467.6,-1089.3 -472.1,-1073.1 -481.4,-1081.4 -477.9,-1086.4 -478,-1085.7 
				-486.9,-1091.6 -494.6,-1093.5 -500.4,-1084.6 -507.9,-1080.6 -514.4,-1090.1 -523.7,-1085.6 -531.4,-1089.8 -528.6,-1101.1 
				-535.5,-1105.8 -541.6,-1112.3 			"/>
		</g>
		<g>
			<polygon class="st6" points="-536.2,-1059.7 -532.5,-1067.8 -528.1,-1062.1 -534.7,-1055.1 -533.4,-1048.6 -527.6,-1041.8 
				-526.4,-1035 -524.4,-1031.9 -529.4,-1019.5 -518.9,-1022.5 -514,-1015.6 -506.4,-1015.2 -499,-1010.9 -492.9,-1022.2 
				-486.8,-1023.9 -476.8,-1017.5 -469.2,-1019.5 -463.6,-1024.8 -463.6,-1037.3 -457.3,-1031.6 -463,-1024.6 -446.6,-1031.9 
				-439.7,-1024.9 -438.3,-1030.7 -444.6,-1020.5 -444.7,-1012.7 -443.1,-1010.1 -449.8,-1002.3 -458.9,-1017.3 -457.7,-1003.1 
				-462.9,-999.8 -467.3,-1000.7 -470.7,-991.6 -478.7,-998.3 -483.7,-997.2 -490.5,-997.6 -494.6,-997.7 -503.4,-1002.4 
				-504.9,-1010.3 -511.5,-1012.3 -519.5,-1013.8 -525.7,-1019.2 -535.3,-1024.8 -523.7,-1016.1 -528.1,-1009.1 -530.6,-999.5 
				-537.5,-1006.2 -536.6,-1007.8 -534.7,-1015 -547.2,-1023.1 -540,-1029.9 -548.4,-1035.8 -546.9,-1035.2 -553.4,-1034.6 
				-549.3,-1021.3 -546.3,-1016.4 -552.6,-1008.1 -563.2,-1022.1 -571.8,-1011.2 -571,-996.3 -585.3,-1004.4 -578.9,-1005.6 
				-576.8,-993.8 -588.1,-998.6 -590.8,-1002.8 -598.3,-1000.5 -596.1,-992.5 -602.6,-986.1 -613.9,-983.6 -620.1,-996.7 
				-609.3,-1007.4 -622.9,-1011.1 -628.8,-1002.3 -633.7,-1005.9 -633.3,-1015.7 -623.5,-1006.2 -616.2,-1014.2 -608.3,-1014.5 
				-605.8,-1012.8 -611.2,-1018.9 -609.9,-1022.4 -603.9,-1025.3 -596.3,-1022.5 -588.8,-1030.1 -581.6,-1015 -574.1,-1019.3 
				-567.6,-1025.6 -557.7,-1020.3 -559.1,-1037.9 -551.3,-1037.7 -536.7,-1034.5 -532.2,-1043.6 -530.3,-1053.1 -543.5,-1061.1 			
				"/>
		</g>
		<g>
			<polygon class="st6" points="-541,-999.2 -533.1,-1004.6 -527.6,-997.7 -520.5,-996.2 -513.9,-991.1 -505.9,-994.7 
				-511.5,-991.6 -518.8,-993.2 -525.8,-995.5 -535.9,-996.6 -532,-988.7 -536.8,-983.3 -537.8,-976.4 -545.6,-972.8 -545.1,-982.5 
				-539.3,-990.9 -549.4,-988.1 -556.7,-986.6 -566.4,-987.5 -558.1,-990.7 -552.7,-994.2 -544.8,-994.6 			"/>
		</g>
		<g>
			<polygon class="st6" points="-533.1,-977.2 -530.8,-976.3 -521.2,-976.9 -518.4,-970.7 -515.4,-961.6 -505.7,-966.6 
				-501.7,-956.5 -493.1,-961.2 -486.6,-959.8 -480.9,-960.7 -470.2,-948.6 -465.6,-961.2 -460.2,-971 -452,-971.1 -442.8,-966.8 
				-435.4,-957.5 -434.3,-964.2 -427.4,-956.1 -422.8,-949 -408.8,-956.6 -420,-952.9 -432.2,-950.8 -418.1,-942.7 -411.2,-932.1 
				-428.8,-932.9 -435,-920.6 -434.8,-935.6 -439,-929.2 -447.8,-932 -452.6,-927.9 -463.6,-919.3 -464.1,-927.4 -468.4,-925.5 
				-475,-932.7 -483.8,-925.8 -485.3,-933.9 -489.4,-937.7 -495.7,-933.7 -508.5,-933.6 -497.8,-947.7 -512.6,-944.5 -515.2,-948.1 
				-517.9,-959.1 -512,-953 -512.8,-949.4 -510.2,-958.9 -519.3,-963 -527.6,-963.5 -530.4,-969.8 -534.9,-970.9 -530.6,-965.2 
				-531.3,-958 -532.1,-950.8 -538.9,-943.9 -543.7,-941 -550.2,-937.2 -538.5,-930.9 -550.3,-939.4 -545.2,-946.1 -540.7,-952.8 
				-533.9,-959.4 -540.5,-971.3 -554.9,-971.3 -557.5,-965.1 -560,-957.1 -549.4,-943.8 -559.8,-950.1 -570.7,-942.3 -576.9,-939.9 
				-576.5,-930.7 -579.6,-939.4 -588,-931.7 -590.8,-928.2 -594.3,-925.2 -609.7,-924.4 -598,-916.5 -609.7,-918.6 -617.9,-913.9 
				-617.6,-923.8 -624.4,-922.6 -622.5,-918.2 -630.8,-930.2 -631.2,-931.5 -623.6,-930.7 -625.3,-948.3 -620.1,-935.5 
				-617.3,-936.4 -613.3,-953.8 -604,-943.9 -597.7,-950.3 -589.1,-946.9 -582.1,-950.2 -572.7,-946.9 -573.9,-969.3 -561.5,-959.8 
				-558.4,-969.6 -552.3,-973.4 -539,-968.2 -538.3,-974.5 			"/>
		</g>
		<g>
			<polygon class="st6" points="-537.2,-934.2 -535.6,-928.9 -526.5,-930.8 -521.3,-924.4 -525.2,-922.2 -530.8,-930 -534.9,-930.4 
				-539.8,-923.3 -534.2,-915.2 -543.4,-907.2 -534.4,-899.5 -532.4,-895.9 -531.9,-885.5 -522.7,-889.4 -516.9,-886.4 
				-508.9,-889.1 -510.3,-883.3 -517.9,-883.4 -526.3,-881.2 -534.1,-884.3 -534.7,-890.8 -534.2,-884.5 -543.6,-876.8 -541,-869.4 
				-541.3,-861.9 -535.7,-854.5 -533.7,-847 -535.4,-839.7 -532.2,-831.7 -522.6,-836.3 -519.5,-830.7 -527.4,-835.9 -537.1,-832.3 
				-544,-831.7 -544.5,-840.7 -544.3,-844.8 -552.4,-839.7 -560,-840.5 -564.6,-832.9 -568.3,-835.3 -562.9,-839.4 -555.4,-839.6 
				-550,-844.1 -547.4,-850.7 -545.4,-850.9 -550.6,-857.9 -542.9,-865.1 -549.1,-872.2 -548.7,-878.9 -550.7,-872.3 -559.2,-873.5 
				-564.7,-869.1 -571.6,-869.4 -578.6,-871.7 -571.9,-870.7 -566.2,-873.1 -573.3,-876.1 -567.2,-877.7 -561.5,-880.1 
				-553.4,-875.7 -546,-879.8 -543.6,-888 -546,-895.9 -550.7,-903.5 -550.3,-911.1 -545.9,-918.7 -543.6,-927.2 -549.9,-918.2 
				-558.9,-917.2 -566.3,-916.4 -569.4,-920.4 -562.3,-920.1 -557.9,-924.2 -550.5,-925.6 -546.3,-930.5 -548,-934.8 			"/>
		</g>
		<g>
			<polygon class="st6" points="-547,-837.4 -545.8,-831.1 -545.9,-823.6 -548.4,-816.3 -553.8,-812.6 -560.6,-808.9 -568,-811.3 
				-563,-807.9 -554.5,-809.3 -547.2,-814.2 -544.6,-807.4 -546.1,-800.7 -549,-794 -544.5,-787.4 -545,-780.7 -549.2,-774.5 
				-554.2,-772.7 -561.9,-772.7 -556.5,-775.6 -548.6,-770.3 -540.5,-771.7 -533.5,-773.6 -533.4,-780 -536.2,-787.3 -534.3,-795 
				-528.2,-796.2 -523.3,-796.8 -520.9,-798.4 -528,-792.6 -534.4,-798 -537.7,-804.9 -534.3,-812.4 -538.3,-819.6 -534.3,-827.1 
				-537.2,-834.2 -543,-835.1 			"/>
		</g>
	</g>
</g>
<path id="Птица_1_" class="st7" d="M967.9,22.4c-6.4-6.3,8-4.8-17.7-8.3c-6.2-0.8-17.2-1.5-22.1-4.2c22.2-4.1,29.5,0.2,36-0.2
	c12.6-0.9,21.4-13.8,35.4-18.1l-8.9,7.6C958.6,22.8,982.1,16.8,967.9,22.4z"/>
<path id="Птица" class="st7" d="M1011.5,63.5c-15.7,0.8,1.2-6.2-15.9-14.3c-6.9-3.2-16.2-1.7-23.9-4.6
	c25.3-5.6,19.5,2.3,36,6.2c13.9,3.3,18-5.9,34.3,9.3c-13.7-1.7-2.9-5.1-29.8-3.9C1010.2,61.3,1011.7,57.3,1011.5,63.5z"/>
<g id="Дома">
	<g>
		<g id="Дом_2_">
			<polyline class="st8" points="658.4,165 598.3,165 753.8,0 874.6,36.4 874.6,23.3 902.2,15 937.6,25.7 937.6,58.9 1037.6,165 
				855.2,165 			"/>
			<path class="st9" d="M756.8,46l102.7,109h154.9l-86.8-92.2V33.1l-25.4-7.7l-17.6,5.3v19.1L756.8,11.4L621.5,155h32.6"/>
			<polygon class="st10" points="902.2,27.7 925.4,34.7 925.4,79.4 902.2,79.4 			"/>
		</g>
		<g>
			<g>
				<rect x="759.3" y="91.8" class="st9" width="29.1" height="29.1"/>
				<rect x="725.2" y="91.8" class="st9" width="29.1" height="29.1"/>
			</g>
			<g>
				<rect x="759.3" y="125.9" class="st9" width="29.1" height="29.1"/>
				<rect x="725.2" y="125.9" class="st9" width="29.1" height="29.1"/>
			</g>
		</g>
	</g>
	<g>
		<g id="Дом_1_">
			<polyline class="st8" points="527.1,268 467,268 622.5,103 743.3,139.4 743.3,126.3 770.9,118 806.3,128.6 806.3,161.8 
				906.3,268 723.9,268 			"/>
			<path class="st9" d="M625.5,148.9l102.7,109h154.9l-86.8-92.2v-29.7l-25.4-7.7l-17.6,5.3v19.1l-127.8-38.5L490.1,258h32.6"/>
			<polygon class="st10" points="770.9,130.7 794.1,137.7 794.1,182.3 770.9,182.3 			"/>
		</g>
		<g>
			<g>
				<rect x="628" y="194.8" class="st9" width="29.1" height="29.1"/>
				<rect x="593.9" y="194.8" class="st9" width="29.1" height="29.1"/>
			</g>
			<g>
				<rect x="628" y="228.9" class="st9" width="29.1" height="29.1"/>
				<rect x="593.9" y="228.9" class="st9" width="29.1" height="29.1"/>
			</g>
		</g>
	</g>
	<g>
		<g id="Дом">
			<polygon class="st8" points="731,268 895,94 1015.8,130.4 1015.8,117.3 1043.4,109 1078.9,119.6 1078.9,152.8 1187.4,268 			"/>
			<path class="st9" d="M898,139.9l102.7,109h154.9l-86.8-92.2v-29.7l-25.4-7.7l-17.6,5.3v19.1L898,105.3L762.7,249h32.6"/>
			<polygon class="st10" points="1043.4,121.7 1066.7,128.7 1066.7,173.3 1043.4,173.3 			"/>
		</g>
		<g>
			<g>
				<rect x="900.5" y="185.8" class="st9" width="29.1" height="29.1"/>
				<rect x="866.4" y="185.8" class="st9" width="29.1" height="29.1"/>
			</g>
			<g>
				<rect x="900.5" y="219.9" class="st9" width="29.1" height="29.1"/>
				<rect x="866.4" y="219.9" class="st9" width="29.1" height="29.1"/>
			</g>
		</g>
	</g>
</g>
<g>
	<path class="st10" d="M67,398.2c-10,0-17.4-1.8-22.1-5.5c-4.7-3.6-7.1-9.3-7.1-17.1v-38c0-8.3,2.4-14.4,7.3-18.1
		c4.9-3.8,12.7-5.6,23.4-5.6h55.3v16.8H74.7c-6.1,0-9.2,2.4-9.2,7.2V376c0,1.8,0.7,3.3,2.1,4.4c1.4,1.1,3.2,1.6,5.6,1.6
		c1.9,0,4.2,0,6.8,0c2.6,0,5.2,0,8,0s5.6,0,8.4,0c2.8,0,5.6-0.3,8.2-1c6.2,0,12.7,0,19.3,0v15.7c-6.9,1-13.7,1.5-20.4,1.5
		c-5.8,0-12,0-18.5,0C78.4,398.2,72.5,398.2,67,398.2z"/>
	<path class="st10" d="M217.5,379.9c0,6-2.2,10.7-6.5,14.1c-4.4,3.4-10.4,5.1-18,5.1h-35.3c-7.7,0-13.7-1.7-18-5.1
		c-4.4-3.4-6.5-8.1-6.5-14.1v-27.6c0-6,2.2-10.7,6.5-14.1c4.3-3.4,10.4-5.1,18-5.1h35.3c7.7,0,13.7,1.7,18,5.1
		c4.3,3.4,6.5,8.1,6.5,14.1V379.9z M190.6,354.1c0-3.2-2-4.8-6.1-4.8h-18.4c-4.1,0-6.1,1.6-6.1,4.8v24c0,3.2,2,4.8,6.1,4.8h18.4
		c4.1,0,6.1-1.6,6.1-4.8V354.1z"/>
	<path class="st10" d="M229.8,353.4c0-6,2.2-10.6,6.5-14c4.3-3.4,10.4-5.1,18-5.1h49.1v16.2h-40.7c-4.1,0-6.1,1.6-6.1,4.8v23.2
		c0,1.2,0.5,2.2,1.5,3c1,0.8,2.3,1.2,3.8,1.2c4,0,8.4,0,13.2,0c4.8,0,9.3-0.1,13.5-0.4c4.9-0.4,9.8-0.8,14.7-1.1v15.6
		c-5.7,0.6-11.5,1-17.4,1c-5,0.7-10.5,1.1-16.4,1.1c-5.9,0-11.5,0-17,0c-7,0-12.5-1.6-16.7-4.9c-4.2-3.3-6.3-7.6-6.3-13V353.4z"/>
	<path class="st10" d="M370.3,357.7v-23.4h26.9v63.6h-26.9v-24h-27.6v24h-26.9v-63.6h26.9v23.4H370.3z"/>
	<path class="st10" d="M495.4,379.9c0,6-2.2,10.7-6.5,14.1c-4.4,3.4-10.4,5.1-18,5.1h-35.3c-7.7,0-13.7-1.7-18-5.1
		c-4.4-3.4-6.5-8.1-6.5-14.1v-27.6c0-6,2.2-10.7,6.5-14.1c4.3-3.4,10.4-5.1,18-5.1h35.3c7.7,0,13.7,1.7,18,5.1
		c4.3,3.4,6.5,8.1,6.5,14.1V379.9z M468.5,354.1c0-3.2-2-4.8-6.1-4.8H444c-4.1,0-6.1,1.6-6.1,4.8v24c0,3.2,2,4.8,6.1,4.8h18.4
		c4.1,0,6.1-1.6,6.1-4.8V354.1z"/>
	<path class="st10" d="M590.6,381.1c0,2.4-0.6,4.6-1.7,6.7c-1.1,2-2.7,3.8-4.7,5.3c-2,1.5-4.4,2.7-7.2,3.5c-2.8,0.8-6,1.3-9.4,1.3
		h-58.3v-63.6H563c3.5,0,6.6,0.4,9.4,1.3c2.8,0.8,5.2,2,7.2,3.5c2,1.5,3.6,3.2,4.7,5.2c1.1,2,1.7,4.1,1.7,6.3c0,3.4-1.1,6.3-3.2,8.8
		c-2.1,2.5-5.2,4.2-9.1,5c4.6,0.6,8.6,2.4,11.9,5.3C588.9,372.4,590.6,376.3,590.6,381.1z M559.1,352.9c0-1.2-0.5-2.2-1.5-3
		c-1-0.8-2.3-1.2-3.8-1.2h-17.7v10.8h17.7c1.5,0,2.8-0.4,3.8-1.2c1-0.8,1.5-1.8,1.5-3V352.9z M563.7,377.5c0-1.2-0.5-2.2-1.5-3
		c-1-0.8-2.3-1.2-3.8-1.2h-22.3v10.2h22.3c1.5,0,2.8-0.4,3.8-1.2c1-0.8,1.5-1.8,1.5-3V377.5z"/>
	<path class="st10" d="M601.4,397.9v-63.6h26.9v19.8h29.9c7,0,12.5,1.6,16.7,4.9c4.2,3.3,6.3,7.6,6.3,13.1v7.8
		c0,5.4-2.1,9.8-6.3,13.1c-4.2,3.3-9.8,4.9-16.7,4.9H601.4z M649,382.9c1.5,0,2.8-0.4,3.8-1.2c1-0.8,1.5-1.8,1.5-3v-5.3
		c0-1.2-0.5-2.2-1.5-3c-1-0.8-2.3-1.2-3.8-1.2h-20.7v13.7H649z M718,397.9h-26.9v-63.6H718V397.9z"/>
	<path class="st10" d="M786.4,334.3h28.4v63.6h-26.9v-34.8l-26.1,34.8h-28.4v-63.6h26.9v34.8L786.4,334.3z M765.6,328.3
		c-13.3,0-20-5.2-20-15.6v-3.6h20v3c0,1.2,0.5,2.2,1.5,3c1,0.8,2.3,1.2,3.8,1.2h4.6c1.5,0,2.8-0.4,3.8-1.2c1-0.8,1.5-1.8,1.5-3v-3
		h20v3.6c0,10.4-6.7,15.6-20,15.6H765.6z"/>
	<path class="st10" d="M954.5,310.9l2.3,16.8l-47.6,4.2c-5.1,0.5-7.7,2.5-7.7,6v7.2c3-0.5,6-0.9,9.1-1.2c2.7-0.3,5.5-0.6,8.5-0.9
		c3-0.2,5.9-0.4,8.5-0.4h6.9c7,0,12.5,1.6,16.7,4.9c4.2,3.3,6.3,7.6,6.3,13.1v19.2c0,6-2.2,10.7-6.5,14.1c-4.4,3.4-10.4,5.1-18,5.1
		h-33.8c-7.7,0-13.7-1.7-18-5.1c-4.4-3.4-6.5-8.1-6.5-14.1v-42.6c0-5.8,2.5-10.6,7.4-14.5c5-3.9,11.7-6.3,20.2-7.1L954.5,310.9z
		 M924.6,382.9c4.1,0,6.1-1.6,6.1-4.8v-14.8c0-1.2-0.5-2.2-1.5-3c-1-0.8-2.3-1.2-3.8-1.2h-5.4c-2.1,0-4.3,0-6.5,0
		c-2.2,0-4.2,0.1-5.9,0.4c-2,0.4-4,0.7-6,0.9v17.7c0,3.2,2,4.7,6.1,4.7H924.6z"/>
	<path class="st10" d="M1052.8,379.9c0,6-2.2,10.7-6.5,14.1c-4.4,3.4-10.4,5.1-18,5.1h-35.3c-7.7,0-13.7-1.7-18-5.1
		c-4.4-3.4-6.5-8.1-6.5-14.1v-27.6c0-6,2.2-10.7,6.5-14.1c4.3-3.4,10.4-5.1,18-5.1h35.3c7.7,0,13.7,1.7,18,5.1
		c4.3,3.4,6.5,8.1,6.5,14.1V379.9z M1025.9,354.1c0-3.2-2-4.8-6.1-4.8h-18.4c-4.1,0-6.1,1.6-6.1,4.8v24c0,3.2,2,4.8,6.1,4.8h18.4
		c4.1,0,6.1-1.6,6.1-4.8V354.1z"/>
	<path class="st10" d="M1093.4,397.9v20.4h-26.9v-84h23.8l1.5,6c2.7-1.4,5.5-2.6,8.6-3.6c2.7-0.9,5.6-1.7,8.9-2.5
		c3.3-0.8,6.7-1.1,10.1-1.1h6.9c7,0,12.5,1.6,16.7,4.9c4.2,3.3,6.3,7.6,6.3,13.1v27.6c0,6-2.2,10.7-6.5,14.1
		c-4.4,3.4-10.4,5.1-18,5.1H1093.4z M1093.4,381.7h23c4.1,0,6.1-1.6,6.1-4.8v-22.2c0-1.2-0.5-2.2-1.5-3c-1-0.8-2.3-1.2-3.8-1.2h-5.4
		c-1.9,0-4,0.1-6.1,0.4c-2.1,0.2-4.1,0.5-6,0.8c-2.2,0.3-4.2,0.7-6.3,1.2V381.7z"/>
</g>
<text transform="matrix(1.2795 0 0 1 31.7302 397.9183)" class="st2"><tspan x="0" y="0" class="st11 st12 st13">С</tspan><tspan x="74.4" y="0" class="st11 st12 st13">основый бор</tspan></text>
</svg>
