<?xml version="1.0" encoding="utf-8"?>
<!-- Generator: Adobe Illustrator 19.0.1, SVG Export Plug-In . SVG Version: 6.00 Build 0)  -->
<svg version="1.1" id="Слой_2" xmlns="http://www.w3.org/2000/svg" xmlns:xlink="http://www.w3.org/1999/xlink" x="0px" y="0px"
	 viewBox="0 0 1391.9 1818.2" style="enable-background:new 0 0 1391.9 1818.2;" xml:space="preserve">
<style type="text/css">
	.st0{fill:#FFCD06;}
	.st1{fill:#91AA3F;stroke:#222222;stroke-width:2;stroke-miterlimit:10;}
	.st2{fill:none;stroke:#FFFFFF;stroke-width:2;stroke-miterlimit:10;}
	.st3{fill:#FFFFFF;stroke:#000000;stroke-miterlimit:10;}
	.st4{fill:#FFFFFF;}
	.st5{font-family:'Roboto-Regular';}
	.st6{font-size:72px;}
</style>
<g>
	<path class="st0" d="M1116.4,1327.5l35.5-29.5l-5.5-8.2l-35.9,29l-88-123.3l39.5-28.8l-5.5-8.2l-38.5,27l-33.1-49.6
		c-11.8-17.7-33.9-25.3-54.1-18.8l-160,52.1c-14,4.6-29.3-1.2-36.7-13.9l-13.5-22.9c-1.9-3.2-0.9-7.4,2.2-9.4l27.3-17.8l-4-5.9
		l-26.4,17.2c-3.3,2.2-7.8,1.1-9.9-2.3l-71.6-121.6c-1.9-3.2-0.9-7.4,2.2-9.4L659,971l-4.8-7l-17.6,11.5c-3.3,2.2-7.8,1.1-9.9-2.3
		L421.9,625l7.5-35l183.4-24.7l8.8,65.3l139.5-18.8l-1.9-14.2l19-2.6l-4.5-33.3l-19,2.6l-3.6-26.4l-92.8,13l-15-19.6l3.5-12.9
		l-17.5-24l-12.9,8.3l20.9,29.7l-21,14L595.7,516l-10.8,6.5l16,25l10,3.5l1,6l-57.3,8l-33.3-45.8l-5.8,3.8l28.5,43l-119.5,16l-13-17
		L521,494.1l33.6,49.4l6.8-5.5l-32.5-49l33.7-21.8l-4.1-6.1l-87.8,56.8l-7.8-11.6l7.5-6.4l-56.3-81.3l-10.7,5.3l-14-21l151.1,31.5
		l-7.5-11.1L348.6,387l-18.2,12.2l10.2,13.4c3.7,4.8,10.5,5.9,15.5,2.4l19.3-13.5l20.5,29L346.1,463l-43.9-65.8l18.5-12.5
		l-53.7-79.3l-18,12.1l-40-59.5l-10.2,5.2l59.1,87.7l16.5,25.2l32,48.8l17,25.5l31,47.5l16.3,26l46.7,66.5l-8.5,37l28.1,47.7
		l-155.2,101l27.3,40.5l152.7-99.4l50.6,86l-66,42.1l6.3,9.5l65.2-42.9l98.7,168.5c1.9,3.2,0.9,7.4-2.2,9.4l-152.5,99.2l4.7,7
		l151.5-98.6c3.3-2.2,7.8-1.1,9.9,2.3l72.7,123.5c1.9,3.2,0.9,7.4-2.2,9.4l-172.7,112.4l14.9,23.3l21.8-14.6l-11.7-18.3l149.7-98.1
		c3.3-2.2,7.8-1.1,9.9,2.3l19.6,33.3l-17.5,85.8l120,172.8l-19.9,17.9l6.1,6.4l25-22l13.9-8.2l-5.5-8.2l-13.1,9.6l-61-86.5l117-35.5
		l92,131.2l10.4-1.9l-31-44.3l40.9-27.5l-5.5-8.2l-40.3,27.5l-60-82.3l129.9-40.9c12.5-3.9,26.2,0.8,33.6,11.7l92.1,135.6l10.8-1.9
		L1116.4,1327.5z M267,344.6l-12.8-19.2l12.6-8.1l13.1,19.7L267,344.6z M284.5,370.8l12.3-8.5l13.2,19.8l-12.8,7.8L284.5,370.8z
		 M365.4,492l-13.7-20.5l12.4-8.4l13.6,20.3L365.4,492z M382.5,517.6l12.5-8.2l13.2,19.7l-12.4,8.3L382.5,517.6z M401.6,546.1
		l53.6-34.8l7.8,11.6l-50,32.3c-2.4-0.5-3.8-0.7-6.2-1.2L401.6,546.1z M772.7,1330.5l-19.6-30.2l12.4-7.8l-5.5-8.2l-12.3,7.6
		l-25.6-39.5l12.6-62l46.2-14.9c13.5-4.4,28.2,0.7,36.1,12.5l72.7,107.8L772.7,1330.5z M897.4,1292l-18.4-27.8
		c-2.1-3-1.4-7.1,1.6-9.2l35-26l-5.5-8.2l-33.1,26.8c-3.8,2.6-9,1.7-11.6-2.2l-53.3-80.2l121.5-40.9c15.1-5.1,31.7,0.5,40.6,13.7
		l71.1,104.7L897.4,1292z"/>
	<path class="st0" d="M636.9,349.4l-67.5-13.2l-58.3-85.7l-31,19.3l85.3,125.7l-12.9,8.2l7.3,5l72-46.2l-4.2,22.8l9.7-6.4l5.1-22.9
		L636.9,349.4z M596.4,376.2l-20.3-30.3l51,10L596.4,376.2z"/>
</g>
<g>
	<polygon class="st1" points="671,988.6 651,959.2 643.3,964.5 624.6,937.1 680.4,899.2 719,955.9 	"/>
	<polygon class="st1" points="762.8,1123.9 742.8,1094.5 735.1,1099.8 716.4,1072.4 772.2,1034.5 810.8,1091.2 	"/>
	<polygon class="st1" points="927.8,1246.9 915.6,1229 910.1,1220.9 907.8,1217.6 900.1,1222.9 881.4,1195.5 937.2,1157.5 
		975.8,1214.3 	"/>
	<polygon class="st1" points="1074.1,1184.6 1061.9,1166.7 1056.4,1158.5 1054.1,1155.2 1046.4,1160.5 1027.8,1133.1 1083.5,1095.2 
		1122.1,1151.9 	"/>
	<polygon class="st1" points="1164,1315.9 1151.9,1298 1146.3,1289.9 1144.1,1286.6 1136.3,1291.9 1117.7,1264.5 1173.5,1226.5 
		1212.1,1283.3 	"/>
	<polygon class="st1" points="1019.4,1380.4 1007.3,1362.5 1001.7,1354.3 999.5,1351 991.7,1356.3 973.1,1328.9 1028.9,1291 
		1067.5,1347.7 	"/>
	<polygon class="st1" points="777.8,1310.5 765.6,1292.5 760.1,1284.4 757.8,1281.1 750.1,1286.4 731.4,1259 787.2,1221.1 
		825.8,1277.8 	"/>
	<polygon class="st1" points="869.8,1443.5 857.6,1425.5 852.1,1417.4 849.8,1414.1 842.1,1419.4 823.4,1392 879.2,1354.1 
		917.8,1410.8 	"/>
</g>
<g>
	<polygon class="st0" points="512.7,1339.2 601.4,1440.5 595.5,1445.3 562.1,1407.8 526.1,1404.5 487.4,1359.8 	"/>
	<path class="st0" d="M385.4,0.5l268.1,333.7c9.6,12,6.8,29.6-6,38l-52.8,34.7c-15.7,10.3-36.8,6.2-47.5-9.3L391.4,171.8l-26.7,15
		l1,1.7c8.4,13.8,3.6,31.8-10.4,39.7l-23.8,15.9c-11.6,7.8-27.2,5.5-36.2-5.2l-2.6-3.1l-51,32.3l88.7,131l102.4-68.7
		c14.4-9.2,33.5-5.3,43.1,8.8l140.4,207.2l21-14l-38.7-55c-11.1-15.8-6.9-37.7,9.3-48.3l55.4-36.3c14.2-9.3,33.1-6.4,43.9,6.8
		l266.1,326.8l23,36l136,295l144.7,290.6c8.3,16.7-1.7,36.7-20.1,40l-288.6,51.5l-61.3,18.3l-41.5,16.3c-12.8,5-27.4,1.9-36.9-8
		l-65.2-67.6L780,1386l-17.9-26.8l0,0c-12.6,6.6-28.1,3.3-36.9-7.8l-1.8-2.2l-19.7,16.3l104.6,116c7.8,8.7,6.7,22.2-2.5,29.4
		l-65.8,52.2c-8.2,6.5-19.9,5.6-27-2.1l-111.6-120.5l-123,99l98,110l-38.3,32.9l59.3,65.1l132-104.7l-0.6-0.7
		c-10.9-11.9-9.4-30.5,3.2-40.6c0,0,89.5-70.9,120.4-93c12.8-9.2,89.4-39.8,127-46c35.5-5.9,142-24,142-24l153.5-29.1
		c17.4-3.3,35,5.4,42.9,21.2l73.6,146.8v-62l-278-563l-89-194l-19-36l-324-400l-260-322H385.4z"/>
</g>
<polygon class="st2" points="458.4,129.5 652.4,368.5 981.4,773.5 1293.4,1416.5 995.4,1471.5 928.4,1501.5 888.4,1524.5 
	526.4,1816.5 230.4,1383.5 190.4,1315.5 7.4,952.5 425.4,673.5 163.4,281.5 "/>
<polygon class="st2" points="292.7,838.2 396.1,769.8 512.4,944.5 409.7,1011.8 "/>
<polygon class="st2" points="393.7,794.8 488.4,938.5 415.4,988.8 317.1,845.2 "/>
<g>
	
		<rect x="536.6" y="1242.3" transform="matrix(0.5506 0.8348 -0.8348 0.5506 1287.4935 107.5617)" class="st3" width="14.5" height="14.5"/>
	<polygon class="st3" points="271.5,312.2 396.1,231.8 441.4,296.5 316.7,379 	"/>
	<polygon class="st3" points="370.7,457.8 412.1,430.5 457.4,497.2 416.7,525.8 	"/>
	<polygon class="st3" points="620,564.3 744.7,547.5 752.6,605.7 628.1,622.5 	"/>
	<polygon class="st3" points="547.7,1683.2 581.7,1654.8 600.1,1675.2 626.1,1654.8 640.7,1671.5 617.1,1691.8 625.7,1702.2 
		592.1,1730.8 	"/>
	<polygon class="st3" points="535.1,1539.8 562.7,1515.5 545.7,1495.8 574.1,1473.2 676.4,1585.2 649.1,1608.2 631.4,1588.2 
		601.4,1612.5 	"/>
	<polygon class="st3" points="287.7,830.7 260.4,790.2 281.8,776.2 309.1,816.7 	"/>
	<polygon class="st3" points="543.1,551 554.6,543.5 533.1,511.8 521.2,519.2 	"/>
	<polygon class="st3" points="498.4,1359.3 511.2,1348.5 539.9,1381.5 527.2,1393 	"/>
</g>
<polygon class="st2" points="634.9,1182 725.9,1317.5 650.4,1367 558.9,1231 "/>
<polygon class="st2" points="512.4,948.5 650.4,1161.7 554.4,1226.2 409.7,1011.8 "/>
<path class="st2" d="M320.9,842.6l19.1,27.9c0,0,54.3,8.3,68-44.3l-18.4-28.6L320.9,842.6z"/>
<line class="st2" x1="365.2" y1="915.5" x2="441.1" y2="866.6"/>
<path class="st2" d="M419.1,986.3l-22.4-30.8c10.6-31.3,33.9-45.1,68.7-43.3l19.5,28.7L419.1,986.3z"/>
<circle class="st2" cx="402.7" cy="891.3" r="11.5"/>
<text transform="matrix(1 0 0 1 753.0755 317.2224)" class="st4 st5 st6">Вход</text>
<polygon class="st2" points="703.7,1365.5 808.3,1481.5 713,1561 605.7,1445.2 "/>
</svg>
