<?xml version="1.0" encoding="utf-8"?>
<!-- Generator: Adobe Illustrator 19.0.1, SVG Export Plug-In . SVG Version: 6.00 Build 0)  -->
<svg version="1.1" id="Слой_1" xmlns="http://www.w3.org/2000/svg" xmlns:xlink="http://www.w3.org/1999/xlink" x="0px" y="0px"
	 viewBox="0 0 512 335.9" style="enable-background:new 0 0 512 335.9;" xml:space="preserve">
<style type="text/css">
	.st0{fill:#222222;}
</style>
<g>
	<path class="st0" d="M0,277.9c0-78.7,0-157.3,0-236c0.8-3.2,1.5-6.4,2.5-9.6C8.6,12.1,26.1,0,49.4,0c92.1,0,184.2,0,276.3,0
		c46,0,91.9,0,137.9,0c23.7,0,41.6,13.7,46.9,35.7c0.5,2.1,1,4.1,1.5,6.2c0,78.7,0,157.3,0,236c-0.4,1.3-0.8,2.5-1,3.8
		c-3.8,20.3-18.1,34.4-38.5,37.2c-8,1.1-16.2,0.9-24.3,1.3c-2.2,10.7-6.9,15.3-16.4,15.5c-10.8,0.2-21.7,0.2-32.5,0
		c-7.7-0.1-12.2-4-14.4-11.5c-0.4-1.4-0.8-2.8-1.2-4.2c-85.3,0-170.4,0-255.4,0c-2.1,10.7-6.8,15.4-16,15.6
		c-11.2,0.3-22.3,0.2-33.5,0c-7.1-0.2-11.7-4.1-13.7-11c-0.5-1.5-0.9-3.1-1.4-4.9c-5.8,0-11.5,0.1-17.1,0
		c-22.3-0.4-39.8-14.4-44.9-35.6C1,282,0.5,280,0,277.9z M48.2,48c0,74.9,0,149.3,0,223.8c106.7,0,213.1,0,319.5,0
		c0-74.8,0-149.3,0-223.8C261,48,154.8,48,48.2,48z M439.7,112C439.7,112,439.7,112,439.7,112c9.8,0,19.6,0.1,29.5,0
		c7.2-0.1,10.9-3.6,10.9-10.6c0.1-14.5,0.1-29,0-43.4c0-6.2-3.8-10.1-9.9-10.1c-20.1-0.1-40.3-0.1-60.4,0c-6.2,0-9.9,3.8-9.9,10.1
		c-0.1,14.5-0.1,29,0,43.4c0,7.1,3.7,10.6,10.8,10.7C420.4,112,430,112,439.7,112z M416.1,176c8.9,0,16.1-7.3,16-16.3
		c-0.1-8.9-7.4-16-16.4-15.9c-8.7,0.1-15.8,7.3-15.8,16C399.9,168.9,407.1,176.1,416.1,176z M447.9,159.9c0,8.9,7.3,16.2,16.2,16.1
		c8.7-0.1,15.9-7.1,16-15.8c0.2-8.9-7.1-16.3-16-16.4C455.2,143.7,447.9,150.9,447.9,159.9z M416.2,191.8c-9-0.1-16.3,7.1-16.3,16
		c-0.1,8.7,7,16,15.6,16.2c9,0.2,16.4-6.9,16.6-15.8C432.3,199.3,425.1,191.9,416.2,191.8z M480.1,207.9c0-9-7.2-16.2-16.2-16.2
		c-9,0-16.1,7.3-16,16.3c0.1,8.9,7.4,16,16.4,15.9C473,223.9,480.1,216.6,480.1,207.9z M416.1,239.8c-9,0-16.2,7.2-16.2,16.2
		c0,9,7.3,16.1,16.3,16.1c8.7,0,15.9-7.2,15.9-15.9C432.2,247.1,425,239.8,416.1,239.8z M463.8,272c8.9,0.1,16.3-7.1,16.3-16
		c0-8.8-7-16-15.6-16.2c-9.1-0.2-16.4,6.8-16.6,15.7C447.7,264.5,454.8,271.9,463.8,272z"/>
	<path class="st0" d="M64.5,64.2c95.9,0,191.3,0,287.1,0c0,63.8,0,127.3,0,191.2c-95.5,0-191.1,0-287.1,0
		C64.5,191.9,64.5,128.2,64.5,64.2z M232.3,95.8c-25.2,0-50.3,0-75.5,0c-1,0-2,0-3,0c-6.2,0.1-9.9,3.1-9.9,8.1
		c0,5.1,3.6,8.1,9.8,8.1c52,0,104,0,156,0c6.7,0,10.3-2.9,10.4-8.1c0-5.2-3.7-8.1-10.3-8.1C283.9,95.8,258.1,95.8,232.3,95.8z
		 M248,127.8c-9,0-18,0-27,0c-12.3,0-24.6-0.1-36.9,0c-5.1,0-8.3,3.4-8.3,8c0,4.7,3.2,7.8,8.2,8.2c0.7,0,1.3,0,2,0
		c41.4,0,82.9,0,124.3,0c1.2,0,2.7,0.4,3.4-0.2c2.3-1.9,5.5-4,6-6.4c0.5-2.4-1.4-5.9-3.3-8c-1.2-1.4-4.3-1.5-6.5-1.5
		C289.3,127.7,268.7,127.8,248,127.8z M264,176C264,176,264,176,264,176c15.5,0,31,0,46.5,0c6.2,0,9.9-2.9,10-7.9
		c0.1-5.2-3.6-8.3-10.1-8.3c-30.8,0-61.6,0-92.4,0c-6.4,0-9.9,2.8-10,7.9c-0.1,5.3,3.5,8.3,10.1,8.3C233.3,176,248.7,176,264,176z
		 M280,208c10.1,0,20.3,0,30.4,0c6.4,0,10.3-3.2,10.2-8.3c-0.1-4.9-3.8-7.9-10.1-7.9c-20.3,0-40.6,0-60.9,0c-6.3,0-9.8,2.9-9.8,8
		c0,5.2,3.5,8.2,9.7,8.2C259.7,208.1,269.8,208,280,208z"/>
</g>
</svg>
