<?xml version="1.0" encoding="utf-8"?>
<!-- Generator: Adobe Illustrator 19.0.1, SVG Export Plug-In . SVG Version: 6.00 Build 0)  -->
<svg version="1.1" id="Слой_1" xmlns="http://www.w3.org/2000/svg" xmlns:xlink="http://www.w3.org/1999/xlink" x="0px" y="0px"
	 viewBox="0 0 383.5 275.1" style="enable-background:new 0 0 383.5 275.1;" xml:space="preserve">
<style type="text/css">
	.st0{fill:#222222;}
</style>
<g>
	<path class="st0" d="M65.1,213.1c-4.8,0-8.9,0-13.4,0c-0.1,1.9-0.2,3.7-0.2,5.5c-0.1,14.3,0,28.7-0.2,43
		c-0.1,6.4-3.1,10.5-8.4,12.2c-4.4,1.4-9.8-0.2-12.2-4.5c-1.5-2.8-2.2-6.3-2.2-9.5c-0.2-13.3,0-26.7,0.1-40c0-7.2,0-7.2-7.3-7.3
		c-4.7,0-9.3,0-14-0.1c-6.7,0-8.5-2.2-6.4-8.7c7-21,14.3-41.8,21.2-62.9c1.6-4.9,2.4-10.3,2.6-15.5c0.3-9.6-0.2-19.3-0.4-29
		c-0.5-19.3,11.7-32.7,30.9-33.9c0.8-0.1,1.6-0.1,3.6-0.3C47.4,52.9,42.1,42,46.1,28.1c2.3-8,7.4-14.1,15-17.9
		c15.1-7.6,33.7-1,40.2,14.5c4,9.5,3.3,18.9-2.2,27.7c-5.6,8.8-14.1,12.8-25,13.9c12.8,10.6,24.8,20.6,36.8,30.5
		c5.9,4.9,11.7,9.8,17.7,14.7c6.6,5.3,8.4,12,6.5,20.1c-0.3,1.3-0.1,3.4,0.8,4.2c5.7,5.3,11.6,10.5,17.6,15.5c6.2,5.2,7,5.1,14,1.3
		c2-1.1,4-2.2,6.1-3.3c-10.6-10.7-11.6-21.5-3.1-30c7.5-7.4,19.6-7.3,26.9,0.3c8.3,8.6,6.6,19.9-3.9,29.8
		c10.6,8.9,21.3,17.9,31.9,26.9c4.7,4,5.5,8.6,2.3,12.6c-3.4,4.3-8.1,4.6-13.1,0.7c-3.5-2.7-6.8-5.6-10.3-8.4
		c-0.5,0.1-1.1,0.3-1.6,0.4c0,8.1,0.3,16.2-0.1,24.2c-0.9,19.5-2.2,38.9-3.3,58.3c-0.3,6-3.3,9.8-8.5,10.7c-5.5,0.9-8.6-1.7-8.6-7.2
		c0-8.2,0-16.3-0.1-24.5c0-1.8-0.6-3.6-0.9-5.4c-0.6,0-1.2-0.1-1.8-0.1c-0.4,1.7-1,3.4-1,5c-0.1,8.2,0,16.3-0.1,24.5
		c0,6.7-5.1,9.9-11.3,6.9c-3.6-1.7-5.3-4.7-5.5-8.8c-1.3-28-2.5-55.9-4-83.8c-0.1-1.8-1.3-4.1-2.8-5.3c-8.9-7.5-18.1-14.7-27.1-22.1
		c-5.7-4.7-10.3-10.1-18.3-12.4c-6.1-1.8-10.8-8-16.2-12.2c-0.9-0.7-1.8-1.2-4.1-1.4c0.6,3.3,0.7,6.7,1.8,9.7
		c8.2,21.6,16.6,43.1,24.9,64.7c3,7.7,1.5,9.9-6.8,10.1c-5.7,0.1-11.3,0.3-17,0.2c-3.3-0.1-4.3,1.2-4.2,4.4c0,15.2,0,30.3-0.3,45.5
		c-0.1,6.8-5,11.6-11.2,11.7c-5.8,0.1-10.7-4.6-11.5-11c-0.2-1.3-0.1-2.7-0.1-4c0-13.3,0.1-26.7,0.1-40
		C65.1,217.5,65.1,215.7,65.1,213.1z"/>
	<path class="st0" d="M258.5,108c-8,6.6-15.3,12.7-22.6,18.6c-4.9,3.9-10.3,4.6-15.8,1.4c-5.4-3.1-8.2-8-7.2-14.2
		c0.4-2.8,1.8-6,3.8-7.8c16.5-14.2,33.1-28.4,50.2-41.9c5.2-4.1,11.8-6.3,17.9-9.5c-9-6.1-14.5-15.3-13.7-27.3
		c0.6-8.5,4.4-15.6,11.2-21c12.9-10.3,31.7-7.9,41.8,5.3c10.7,13.9,6.8,31.9-9.9,44.3c10,7.7,20,15.4,29.9,23
		c11,8.4,22,16.8,32.9,25.3c7.4,5.7,8.5,13.2,3.1,20c-5.2,6.6-14,7.5-20.8,2c-6-4.8-11.8-9.8-17.7-14.7c-1.2-1-2.5-1.9-4.1-3.1
		c0,4.8,0,9,0,13.3c-0.3,40.1-0.5,80.3-0.8,120.4c0,5.3,0,10.7-0.1,16c-0.1,9.4-7.2,16.8-16.2,16.9c-9.2,0.1-16.6-7.2-16.6-16.9
		c-0.1-17.7,0-35.3,0-53c0-2,0-4,0-6.4c-4.2,0-8,0-12.6,0c-0.1,1.8-0.3,3.7-0.3,5.6c0,17.8,0.1,35.7-0.1,53.5
		c-0.1,11.9-9.6,19.4-20.7,16.5c-7.5-1.9-12.2-8.5-12.2-17.4c0.1-33.8,0.4-67.6,0.5-101.4C258.6,140.1,258.5,124.6,258.5,108z"/>
</g>
</svg>
