<?xml version="1.0" encoding="utf-8"?>
<!-- Generator: Adobe Illustrator 19.0.1, SVG Export Plug-In . SVG Version: 6.00 Build 0)  -->
<svg version="1.1" id="Слой_1" xmlns="http://www.w3.org/2000/svg" xmlns:xlink="http://www.w3.org/1999/xlink" x="0px" y="0px"
	 viewBox="0 0 436.2 512" style="enable-background:new 0 0 436.2 512;" xml:space="preserve">
<style type="text/css">
	.st0{fill:#222222;}
</style>
<g>
	<path class="st0" d="M145.1,512c-5.4-3.3-6.9-8.1-6.9-14.3c0.2-46.3,0.1-92.6,0.1-138.9c0-2,0-4,0-6.5c-1.7-0.1-3.2-0.2-5.4-0.3
		c0,2.2,0,3.9,0,5.7c0,13.8,0.1,27.7,0,41.5c-0.1,7.7-4.3,12.1-11,11.9c-5.4-0.2-9.6-4-9.7-9.4c-0.1-19.5-0.4-39,0.1-58.5
		c0.3-13,12.8-24.9,26-25.1c15.8-0.3,31.7-0.3,47.5,0c13.9,0.3,26,12.8,26.2,27.1c0.3,18.3,0.1,36.6,0,55c0,6.6-4.3,10.9-10.4,10.9
		c-6,0-10.4-4.3-10.4-10.9c-0.1-15.8,0-31.6,0-47.9c-1.8-0.1-3.4-0.2-5.6-0.4c0,2.3,0,4.2,0,6.2c0,46.6-0.1,93.3,0.1,139.9
		c0,5.9-1.5,10.7-6.5,14c-2.7,0-5.3,0-8,0c-4.9-3.4-6.3-8.1-6.2-14.1c0.3-24.5,0.1-48.9,0.1-73.4c0-1.8,0-3.6,0-5.5
		c-2.2,0-3.8,0-5.9,0c0,2,0,3.8,0,5.5c0,24.6-0.2,49.3,0.1,73.9c0.1,6.1-1.6,10.7-7.1,13.6C149.7,512,147.4,512,145.1,512z"/>
	<path class="st0" d="M33.1,512c-5.3-3.3-6.9-8.2-6.8-14.3c0.2-46.6,0.1-93.3,0.1-139.9c0-1.8,0-3.6,0-5.6c-2.1,0-3.7,0-6.1,0
		c0,1.8,0,3.6,0,5.3c0,14,0,28,0,42c0,7.2-3.9,11.6-10.2,11.6C3.9,411,0,406.5,0,399.3c0-17.7-0.1-35.3,0-53
		c0.1-15.9,12.2-28.1,28.2-28.2c14.3-0.1,28.7-0.1,43,0c15.9,0.1,28,11.6,28.3,27.6c0.4,18.2,0.2,36.3,0.1,54.5
		c0,6.5-4.3,10.8-10,10.9c-5.9,0.1-10.3-4.4-10.4-11c-0.1-15.8,0-31.6,0-47.8c-2,0-3.7,0-6.1,0c0,1.9,0,3.8,0,5.8
		c0,46.8-0.1,93.6,0.1,140.4c0,6.2-1.7,10.6-7.2,13.5c-2,0-4,0-6,0c-5.6-2.8-7.3-7.3-7.2-13.4c0.3-24.6,0.1-49.3,0.1-73.9
		c0-1.9,0-3.8,0-5.9c-2.3,0-3.9,0-6.1,0c0,2,0,3.8,0,5.6c0,24.5-0.1,49,0.1,73.4c0.1,6.2-1.6,11-6.9,14.3
		C37.7,512,35.4,512,33.1,512z"/>
	<path class="st0" d="M370.1,512c-5.5-2.8-7.2-7.3-7.2-13.5c0.2-47.3,0.1-94.6,0.1-141.9c0-1.3,0-2.6,0-4.4c-2-0.1-3.7-0.2-6.1-0.3
		c0,2.2,0,3.9,0,5.7c0,13.8,0,27.7,0,41.5c0,7.5-4.1,12.1-10.4,12c-6.1-0.1-10-4.5-10.1-11.8c-0.1-17.5-0.2-35,0-52.5
		c0.2-16.7,12.3-28.6,28.9-28.7c13.7-0.1,27.3-0.1,41,0c18.2,0.1,29.8,11.9,29.8,30.2c0,17.3,0,34.7,0,52c0,5.6-3.2,9.6-8,10.6
		c-4.6,0.9-9.4-1.3-11.1-5.6c-0.8-1.9-1-4.2-1-6.3c-0.1-13.7,0-27.3,0-41c0-1.8,0-3.6,0-5.8c-2.1,0-3.8,0-6.1,0c0,2.3,0,4.4,0,6.5
		c0,46.3-0.1,92.6,0.1,138.9c0,6.2-1.5,11-6.8,14.3c-2.3,0-4.7,0-7,0c-5.3-3.3-7-8.1-6.9-14.3c0.3-24.5,0.1-48.9,0.1-73.4
		c0-1.8,0-3.6,0-5.5c-2.3,0-4,0-6.1,0c0,2.2,0,4,0,5.8c0,24.6-0.1,49.3,0.1,73.9c0.1,6.2-1.7,10.7-7.2,13.5
		C374.1,512,372.1,512,370.1,512z"/>
	<path class="st0" d="M258.1,512c-5.7-2.7-7.4-7.2-7.3-13.4c0.2-46.7,0.1-93.3,0.1-140c0-2,0-4,0-6.5c-2-0.1-3.7-0.2-5.8-0.3
		c-0.1,1.8-0.3,3.3-0.3,4.7c0,13,0,26,0,39c0,1.8,0.1,3.7-0.1,5.5c-0.6,6.1-4.7,10.1-10.3,10c-5.6-0.1-9.9-4.3-10-10.3
		c-0.2-18.7-0.4-37.3,0.1-56c0.4-15.1,12.7-26.4,27.8-26.6c14.7-0.2,29.3-0.2,44,0c15.5,0.2,27.6,12.2,27.8,27.7c0.2,18,0.1,36,0,54
		c0,6.8-4.2,11.2-10.2,11.2c-6,0-10.1-4.2-10.2-11.1c-0.1-14.2,0-28.3,0-42.5c0-1.6,0-3.3,0-5.2c-2.2,0-3.9,0-6.1,0
		c0,2.6,0,5.1,0,7.6c0,46.3-0.1,92.6,0.1,139c0,6.2-1.7,10.7-7.5,13.3c-2,0-4,0-6,0c-5.5-3.2-7.1-7.9-7.1-14.2
		c0.3-24.7,0.1-49.3,0.1-74c0-1.7,0-3.5,0-5.5c-2.4,0.1-4,0.2-6,0.3c0,2.1,0,3.9,0,5.7c0,24.7-0.2,49.3,0.1,74
		c0.1,6.2-1.8,10.6-7.1,13.6C262.1,512,260.1,512,258.1,512z"/>
	<path class="st0" d="M278.1,0c7.6,2.8,13.5,7.1,15.1,15.6c2,10.3-3.8,19.9-13.9,22.8c-9.7,2.8-19.9-2.4-23.5-11.9
		c-3.7-9.7,0.7-20.3,10.2-24.7c1.3-0.6,2.7-1.2,4.1-1.8C272.7,0,275.4,0,278.1,0z"/>
	<path class="st0" d="M166.1,0c8.5,3.2,14.6,8.5,15.3,18.2c0.7,9.9-6,18.7-15.7,20.6c-9.4,1.8-19-3.7-22.2-12.8
		c-3.2-9.1,0.8-19.3,9.4-23.8c1.4-0.8,2.9-1.5,4.3-2.2C160.1,0,163.1,0,166.1,0z"/>
	<path class="st0" d="M54.1,0c8.8,3.5,15.1,9.1,15.2,19.4c0.1,9.6-6.7,17.9-16.1,19.5c-9.6,1.6-19.1-4.1-22-13.2
		c-3-9.4,1.2-19.2,10-23.6c1.3-0.6,2.6-1.3,3.9-2C48.1,0,51.1,0,54.1,0z"/>
	<path class="st0" d="M391.1,0c1.1,0.6,2.2,1.3,3.4,1.8c8.7,4.2,13,13.2,10.8,22.2c-2.3,9.3-10.1,15.2-19.7,15
		c-8.8-0.2-16.8-6.8-18.5-15.3C365.3,14.2,370,5.2,379,1.4c1-0.4,2.1-0.9,3.1-1.4C385.1,0,388.1,0,391.1,0z"/>
	<path class="st0" d="M191.3,80.9c-2.2,0-3.8,0-6.1,0c0,2.1,0,4,0,6c0,46.1,0,92.3,0,138.4c0,1.5,0,3,0,4.5
		c-0.2,6.7-4.4,11.2-10.3,11c-5.7-0.1-9.8-4.6-9.9-11c-0.1-11.7,0-23.3,0-35c0-15.6,0-31.3,0-47.3c-2,0-3.7,0-6.1,0
		c0,1.8,0,3.6,0,5.4c0,25.3,0,50.6,0,76c0,4.7-1.4,8.5-5.8,10.8c-3.6,1.8-7.1,1.4-10.4-0.8c-3.7-2.6-4.3-6.4-4.3-10.6
		c0-22.3,0-44.6,0-67c0-24.3,0-48.6,0-73c0-2.3,0-4.6,0-7.3c-2.2,0-3.9,0-6.2,0c0,2,0,3.8,0,5.6c0,13.7,0,27.3,0,41
		c0,7.6-3.8,12.3-10,12.3c-6.2,0.1-10.2-4.8-10.3-12.2c0-17.3-0.1-34.7,0-52c0.1-16.7,12-28.7,28.6-28.8c14.2-0.1,28.3-0.1,42.5,0
		c15.9,0.1,28.1,11.4,28.5,27.4c0.5,18.1,0.2,36.3,0.1,54.5c0,6.6-4.6,11.2-10.4,11c-5.8-0.1-10-4.7-10-11.4
		c-0.1-13.8,0-27.7,0-41.5C191.3,85.1,191.3,83.1,191.3,80.9z"/>
	<path class="st0" d="M415.9,80.9c-2.2,0-3.8,0-6.1,0c0,2.1,0,4,0,5.9c0,46.8,0,93.6,0,140.4c0,0.5,0,1,0,1.5
		c-0.1,7.4-4.3,12.2-10.5,12.1c-6-0.2-10-4.8-10-11.9c0-25.3,0-50.6,0-76c0-1.7,0-3.3,0-5.4c-2,0-3.7,0-6.1,0c0,2,0,3.9,0,5.9
		c0,25,0,50,0,75c0,7.6-3.8,12.3-9.9,12.4c-6.3,0.1-10.2-4.7-10.2-12.6c0-0.7,0-1.3,0-2c0-46.3,0-92.6,0-138.9c0-2,0-3.9,0-6.2
		c-2.2,0-3.9,0-6.1,0c0,13.6,0,27.1,0,40.6c0,2.8,0.1,5.7-0.1,8.5c-0.5,5.7-4.8,9.8-10.1,9.8c-5.3,0.1-10.1-3.9-10.1-9.6
		c-0.2-19.6-0.6-39.3,0.4-58.9c0.7-14,13-24.2,27.1-24.3c14.8-0.1,29.7-0.2,44.5,0c15.2,0.2,27.3,12.2,27.5,27.3
		c0.2,18.2,0.1,36.3,0,54.5c0,6.6-4.4,11.2-10.3,11.1c-5.8-0.1-9.8-4.4-9.9-10.9C415.8,113.2,415.9,97.4,415.9,80.9z"/>
	<path class="st0" d="M79.2,80.9c-2.2,0-3.8,0-6.1,0c0,1.7,0,3.3,0,4.9c0,47.2,0,94.3,0,141.5c0,1.2,0,2.3,0,3.5
		c-0.4,5.8-4.9,10.2-10.4,10c-5.3-0.1-9.6-4.4-9.8-10.1c-0.2-7.7-0.1-15.3-0.1-23c0-18.2,0-36.3,0-54.5c0-1.8,0-3.6,0-5.8
		c-2-0.2-3.6-0.3-5.8-0.4c-0.1,2-0.3,3.8-0.3,5.5c0,24.7,0,49.3,0,74c0,1.8,0.1,3.7-0.2,5.5c-0.9,5.2-5.1,8.8-10,8.7
		c-5,0-9.1-3.7-10-8.8c-0.3-1.8-0.2-3.7-0.2-5.5c0-46.5,0-93,0-139.5c0-2,0-3.9,0-6.1c-2.2,0-3.8,0-6.1,0c0,1.9,0,3.7,0,5.5
		c0,13.8,0,27.7,0,41.5c0,7.5-4,12.2-10.3,12c-6-0.1-9.9-4.7-9.9-11.9c0-17.5-0.1-35,0-52.5C0.1,59,12.1,47.1,28.5,47
		c14.2-0.1,28.3-0.1,42.5,0c15.5,0.1,27.7,10.5,28.3,25.8c0.8,19,0.4,38,0.3,57c-0.1,6.1-4.7,10.2-10.2,10.1
		c-5.7-0.1-10-4.5-10-10.9c-0.1-14,0-28-0.1-42C79.2,85.1,79.2,83.1,79.2,80.9z"/>
	<path class="st0" d="M303.6,81c-2.2,0-3.7,0-6.2,0c0,2.2,0,4.3,0,6.4c0,45,0,90,0,134.9c0,3,0.1,6-0.1,9c-0.4,5.5-4.5,9.4-9.7,9.6
		c-5.3,0.2-9.9-3.9-10.4-9.5c-0.2-2.5-0.1-5-0.1-7.5c0-23.8,0-47.6,0-71.5c0-1.5,0-3,0-4.8c-2,0-3.7,0-6.1,0c0,2.3,0,4.6,0,6.8
		c0,25,0,50,0,75c0,4.8-1.8,8.4-6.2,10.5c-3.9,1.8-8,1.4-10.5-1.8c-2-2.5-3.4-6.2-3.4-9.3c-0.3-26.5-0.2-53-0.2-79.5
		c0-21.2,0-42.3,0-63.5c0-1.5-0.1-2.9-0.2-4.8c-1.9,0-3.6,0-5.9,0c0,1.9,0,3.7,0,5.5c0,13.8,0.1,27.7,0,41.5c0,7.2-4,11.8-10,11.9
		c-6.2,0.1-10.4-4.7-10.4-12.1c0-17.3-0.1-34.7,0-52c0.1-17,12-28.8,29.1-28.9c14.2-0.1,28.3-0.1,42.5,0c15.7,0.1,27.9,12,28.1,27.8
		c0.2,18,0.1,36,0,54c0,6.6-4.4,11.2-10.3,11.2c-5.9,0-10-4.4-10-11.3c-0.1-14,0-28,0-42C303.6,84.8,303.6,83,303.6,81z"/>
	<path class="st0" d="M142.1,290.3c0.3-11,9.5-19.6,20.6-19.3c10.4,0.3,19.2,9.5,19.1,19.9c-0.1,10.9-9.6,20-20.4,19.6
		C150.5,310,141.9,301,142.1,290.3z"/>
	<path class="st0" d="M274.2,310.2c-10.9,0.1-19.6-8.5-19.7-19.5c0-10.5,8.7-19.4,19.2-19.6c10.7-0.2,19.9,8.7,20,19.4
		C293.9,301.3,285.2,310.1,274.2,310.2z"/>
	<path class="st0" d="M69.3,291c-0.1,10.7-8.7,19.2-19.4,19.2c-10.9,0-19.8-8.8-19.7-19.5c0.1-10.7,9-19.7,19.8-19.6
		C60.7,271.1,69.4,280,69.3,291z"/>
	<path class="st0" d="M386.2,310.2c-11-0.1-19.5-8.7-19.3-19.7c0.1-10.7,8.7-19.3,19.4-19.3c10.7-0.1,19.7,8.9,19.7,19.6
		C406,301.5,397.1,310.3,386.2,310.2z"/>
</g>
</svg>
