<?xml version="1.0" encoding="utf-8"?>
<!-- Generator: Adobe Illustrator 19.0.1, SVG Export Plug-In . SVG Version: 6.00 Build 0)  -->
<svg version="1.1" id="Слой_1" xmlns="http://www.w3.org/2000/svg" xmlns:xlink="http://www.w3.org/1999/xlink" x="0px" y="0px"
	 viewBox="0 0 383.7 383.4" style="enable-background:new 0 0 383.7 383.4;" xml:space="preserve">
<style type="text/css">
	.st0{fill:#222222;}
</style>
<g>
	<path class="st0" d="M224.8,383.4c-48.6,0-97.3,0-145.9,0c-9.9,0-11.9-2-11.9-12c0-88.8,0-177.6,0-266.4c0-8.8,2.4-11.1,11.3-11.1
		c98.1,0,196.3,0,294.4,0c8.5,0,11,2.5,11,11c0,89.3,0,178.6,0,267.9c0,8.1-2.6,10.6-10.9,10.6C323.4,383.4,274.1,383.4,224.8,383.4
		z M297.3,317.4c-1.1-1.9-1.9-3.3-2.7-4.7c-17-30.9-34-61.8-51-92.7c-4.7-8.5-10.9-9-16.5-1.3c-35.4,48.2-70.7,96.4-106,144.6
		c-0.9,1.2-1.6,2.6-2.6,4.1c83.7,0,166.5,0,249.7,0c0-12.2,0.1-24.1-0.1-35.9c0-1.5-0.8-3.2-1.6-4.6c-7.5-13.9-15.1-27.8-22.6-41.7
		c-5.2-9.5-10.5-10.1-17.4-1.9C316.7,294.6,307.1,305.8,297.3,317.4z M184.9,263.2c-9.4-13.2-18.8-26.4-28.2-39.5
		c-4.9-6.9-10.7-6.8-15.6,0.1c-18.8,26.4-37.7,52.9-56.4,79.4c-1.2,1.8-2.1,4.2-2.1,6.4c-0.2,18.2-0.1,36.3-0.1,54.5
		c0,1.1,0.2,2.2,0.4,3.8c6.9,0,13.5-0.2,20.1,0.1c3.7,0.2,6-1,8.2-4.1c12.7-17.7,25.7-35.2,38.6-52.8
		C161.6,295.2,173.2,279.3,184.9,263.2z M301.3,208.2c13.7,0.1,24.5-10.5,24.7-24.1c0.2-13.4-10.9-24.5-24.4-24.5
		c-13.5,0-24.6,11.1-24.5,24.4C277.1,197.3,288,208.1,301.3,208.2z"/>
	<path class="st0" d="M23.2,289.5c-5.7,0-10.5,0.2-15.3-0.1c-5.2-0.3-7.8-3.6-7.9-9.5c0-22.8,0-45.7,0-68.5C0,145.3,0,79.1,0,13
		C0,1.8,1.8,0,13.1,0c97.1,0,194.3,0,291.4,0c10.3,0,12.2,1.9,12.2,12.2c0,9.8,0,19.6,0,30c-2.8,0-5.1,0-7.4,0
		c-88.6,0-177.3,0-265.9,0c-14.5,0-20.2,5.7-20.2,20.3c0,73.6,0,147.3,0,220.9C23.2,285.2,23.2,287.1,23.2,289.5z"/>
	<path class="st0" d="M58.6,339.7c-7.2,0-13.5,0.2-19.8-0.1c-4.7-0.2-6.9-3.2-6.9-8.6c-0.1-17.2-0.1-34.3-0.1-51.5
		c0-72.6,0-145.3,0-217.9c0-8.8,2.1-10.9,10.8-10.9c98.3,0,196.6,0,294.9,0c8.6,0,10.9,2.3,11,10.9c0,7.8,0,15.6,0,23.7
		c-2.2,0.1-3.8,0.2-5.4,0.2c-88.3,0-176.6,0-264.9,0c-14,0-19.7,5.7-19.7,19.7c0,75.6,0,151.3,0,226.9
		C58.6,334.5,58.6,336.8,58.6,339.7z"/>
</g>
</svg>
