<?xml version="1.0" encoding="utf-8"?>
<!-- Generator: Adobe Illustrator 19.0.1, SVG Export Plug-In . SVG Version: 6.00 Build 0)  -->
<svg version="1.1" id="Слой_1" xmlns="http://www.w3.org/2000/svg" xmlns:xlink="http://www.w3.org/1999/xlink" x="0px" y="0px"
	 viewBox="0 0 510.2 373.7" style="enable-background:new 0 0 510.2 373.7;" xml:space="preserve">
<style type="text/css">
	.st0{fill:#222222;}
</style>
<g>
	<path class="st0" d="M255,367.7c-100.1-0.2-181-81.4-180.8-181.5C74.4,86.3,155.8,5.4,255.9,5.7c99.8,0.3,180.6,81.6,180.3,181.4
		C435.9,287,354.7,367.9,255,367.7z M255.2,54.9c-72.9,0.2-131.8,59.3-131.8,132.1c0,72.4,59.9,131.9,132.5,131.5
		c72-0.4,131-59.6,131.1-131.4C387.1,114.4,327.7,54.8,255.2,54.9z"/>
	<path class="st0" d="M510.2,182.5c0,57,0,114,0,171c0,2.2,0.1,4.4-0.4,6.5c-1.7,8.6-10,14.6-18.3,13.6c-8.9-1.1-15.7-8.3-15.2-17.5
		c0.8-15,2.3-29.9,3.4-44.8c3.1-39.7,6.4-79.4,9.1-119.1c0.3-4.3-1-9.6-3.5-13c-20.6-27.8-22.8-58.9-17.9-91.5
		c3-19.8,7.4-39.3,15.8-57.6c3.9-8.5,9-16.7,14.4-24.4c1.9-2.7,6.1-3.7,9.3-5.5c1.1,3.3,3.1,6.6,3.1,9.9
		C510.3,67.6,510.2,125,510.2,182.5z"/>
	<path class="st0" d="M14.6,252.1c1.4-32.8,2.7-65.6,4.4-98.4c0.5-9.5-1.8-17.5-8.7-24C2.5,122.5-0.2,113.7,0,102.9
		C0.6,71.1,0.2,39.3,0.2,7.5c0-1.3-0.4-2.9,0.2-3.9c0.8-1.4,2.2-3.3,3.5-3.4c1.2,0,2.9,1.7,3.7,3.1c0.6,1.2,0.3,2.9,0.3,4.4
		c0,25.2,0,50.3,0,75.5c0,1.7-0.2,3.5,0.4,4.9c0.5,1.1,2.1,2.5,3.1,2.5c1.3-0.1,3-1.3,3.7-2.5c0.7-1.2,0.3-2.9,0.3-4.4
		c0-25.3,0-50.7,0-76c0-1.3-0.4-2.9,0.2-3.9c0.9-1.5,2.4-3.3,3.9-3.6c0.9-0.2,2.7,1.9,3.4,3.4C23.4,4.7,23,6.5,23,8
		c0,24.8,0,49.7,0,74.5c0,1.7-0.4,3.5,0.2,4.9c0.6,1.4,2.3,3.1,3.6,3.1c1.2,0,2.7-1.8,3.5-3.2c0.6-1,0.2-2.6,0.2-3.9c0-25,0-50,0-75
		c0-0.8,0-1.7,0-2.5c0-2.8,0.2-5.8,3.8-5.9c3.6,0,3.9,2.9,3.8,5.8c0,15.7,0,31.3,0,47c0,10.5,0,21,0,31.5c0,2.9-0.4,6.3,3.7,6.4
		c4.4,0.1,4-3.6,4-6.6c0-25.5,0-51,0-76.5c0-1.5-0.3-3.2,0.3-4.4c0.6-1.3,2.2-3.1,3.2-3c1.4,0.2,3,1.7,3.7,3.1
		c0.6,1.2,0.2,2.9,0.2,4.4c0,33.5-0.1,67,0.1,100.5c0,7.1-2.2,13-6.9,18.1c-2.2,2.3-4.2,4.7-6.3,7.1c-4.2,4.9-5.9,10.7-5.6,17.1
		c2.5,53.9,4.9,107.8,7.3,161.8c0.6,14.3,1.3,28.6,1.8,42.9c0.4,10.5-6.8,18.4-16.7,18.5c-9.8,0.1-17.4-7.7-17-18.2
		c1.1-28.5,2.5-56.9,3.7-85.4C13.9,264.1,14.2,258.1,14.6,252.1C14.5,252.1,14.6,252.1,14.6,252.1z"/>
	<path class="st0" d="M255.1,306c-65.9-0.1-119.1-53.3-119.1-119.2c0-66.1,53.6-119.6,119.6-119.2c66,0.3,119.1,53.6,118.9,119.5
		C374.3,252.9,320.9,306.1,255.1,306z"/>
</g>
</svg>
