<?xml version="1.0" encoding="utf-8"?>
<!-- Generator: Adobe Illustrator 19.0.1, SVG Export Plug-In . SVG Version: 6.00 Build 0)  -->
<svg version="1.1" id="Слой_1" xmlns="http://www.w3.org/2000/svg" xmlns:xlink="http://www.w3.org/1999/xlink" x="0px" y="0px"
	 viewBox="0 0 321.8 425.2" style="enable-background:new 0 0 321.8 425.2;" xml:space="preserve">
<style type="text/css">
	.st0{fill:#222222;}
</style>
<g>
	<path class="st0" d="M41.4,51.7c0.1-0.1,0.3-0.3,0.3-0.4c1.2-14.7,5.4-14.2,17.1-12.5c4.6,0.7,9.2,1.1,14.5,1.7
		c-0.5-13.7,3-25.5,14.2-33.7c7-5.2,14.9-7.4,23.5-6.6c11.6,1.1,20.3,6.8,26.5,16.5c6.1,9.6,4.9,20.4,5.2,31.1c4.8,0,9.2,0.2,13.7,0
		c43.9-1.8,87.9-3.6,131.8-5.4c7.4-0.3,10.3,2.5,10.5,10c0.1,5.5,0,10.9,0,16.5c5.9,0.8,10.7,1.4,15.4,2.2c5.7,1,8.2,4.1,7.5,9.7
		c-2.3,19.2-4.8,38.3-7.2,57.5c-3,24.1-6.4,48.2-8.9,72.3c-0.8,7.9,0.2,16,0.6,23.9c1.9,48.3,3.9,96.5,5.9,144.8
		c0.3,7,0.7,14,0.9,21c0.2,6.6-2.6,9.5-9.3,9.6c-7.6,0.2-15.3,0-23.1,0c-0.4,2.7-0.7,4.1-0.9,5.6c-1.2,8.4-3.5,10.4-11.9,9.5
		c-11.7-1.3-23.5-2.6-35.2-4.5c-31.2-5.2-62.5-6.1-94.1-4.1c-35.1,2.2-70.2,3.1-105.3,4.5c-6.1,0.2-9-2.4-9.5-8.4
		c-0.5-5.9-0.7-11.9-1-18.2c-5.1-0.7-10-1.3-14.9-2.1c-5.8-0.9-8.3-4.2-7.6-10.1c5.2-40.8,10.9-81.5,15.3-122.4
		c1.6-14.9,0.6-30.2,0.1-45.3c-0.9-29-2.3-57.9-3.5-86.9c-0.9-21-1.6-41.9-2.6-62.9c-0.4-8,2.2-11.1,10.2-11.2
		c7.1-0.1,14.3,0,21.4,0C41.2,52.7,41.3,52.2,41.4,51.7z M57.2,54.4c-13.6,108-27.1,215.3-40.6,323.1c82.8,10.4,165.1,20.8,248,31.2
		c13.6-108.1,27.1-215.4,40.6-323.2c-54.5-6.9-108.2-13.6-162.5-20.4c0,12.6,0.2,24.6-0.1,36.5c-0.1,3.9-0.7,8.1-2.3,11.6
		c-4.1,9.5-14.8,14.7-24.8,12.5c-10.2-2.2-17.5-11-17.6-21.5c-0.2-13.5,0-27-0.1-40.5c0-2.1,0.6-4.4-2.8-4.8
		C82.6,57.6,70.3,56,57.2,54.4z M97.4,43c0.2-0.8,0.4-1.3,0.4-1.7c0.6-6.3,3.4-9.3,8.2-9.1c4.7,0.2,7.4,3.7,7.5,9.9
		c0.1,5.2,0,10.3,0,15.5c0,15,0,30,0,45c0,5.1,2.4,7.7,6.5,7.8c4.4,0.1,6.9-2.9,6.9-8.5c0-22,0-44,0-66c0-11.7-7.6-20-18.3-20.1
		c-11.1-0.2-19,7.7-19.5,19.6C88.7,43.1,89,43.3,97.4,43z"/>
	<path class="st0" d="M242.7,137.4c-0.4,8.4-3.8,16.2-11,22.3c-5.5,4.7-5.3,8.1,0.8,12c15.2,9.6,24.5,23.1,27.6,40.9
		c1.6,9-5.1,16.3-14.2,15.2c-29.2-3.6-58.4-7.2-87.6-11c-10.1-1.3-14.7-9.8-10.4-19.1c7.2-15.6,19.2-26.1,35.5-31.5
		c8.3-2.8,9.2-5.4,4.3-12.5c-7.3-10.8-6.9-24.7,0.8-35c7.7-10.3,21.2-14.5,33.5-10.4C234.2,112.2,242.6,123.7,242.7,137.4z"/>
	<path class="st0" d="M125,311.2c13,1.6,26.4,3.3,39.8,5c25.6,3.2,51.2,6.5,76.7,9.8c6.1,0.8,9,4.2,8.3,9c-0.7,4.7-4.7,7.1-10.6,6.4
		c-38.3-4.8-76.6-9.6-114.9-14.4c-5.6-0.7-8.7-4-8.3-8.7C116.3,313.9,119.7,311.1,125,311.2z"/>
	<path class="st0" d="M163.3,296.1c-17.2-2.1-34.3-4.2-51.5-6.3c-17.5-2.2-35-4.4-52.4-6.7c-6.1-0.8-9.3-4.2-8.5-9.4
		c0.7-4.7,4.7-6.9,10.7-6.2c33.6,4.2,67.3,8.4,101,12.6c0.8,0.1,1.7,0.1,2.5,0.3c4.8,0.9,7.8,4.4,7.4,8.5
		C172.1,293.5,168.5,296.2,163.3,296.1z"/>
	<path class="st0" d="M143.4,365c-13.6-1.7-27.7-3.4-41.7-5.1c-17.5-2.2-35-4.5-52.5-6.8c-5.8-0.8-8.9-4.3-8.2-9.1
		c0.7-4.7,4.8-7.1,10.6-6.3c30.5,3.9,61.1,7.7,91.7,11.5c0.8,0.1,1.7,0.1,2.5,0.3c4.8,1,7.5,4.4,7.1,8.8
		C152.3,362.6,148.9,365.2,143.4,365z"/>
	<path class="st0" d="M175.8,261.9c-19.7-2.5-38.2-4.7-56.7-7.1c-4.8-0.6-7.6-4.3-7.1-8.7c0.5-4.6,4-7.5,9.3-6.9
		c14.4,1.6,28.7,3.6,43.1,5.4c4,0.5,7.9,0.9,11.9,1.6c4.7,0.7,7.6,4.3,7.1,8.6C182.9,259.1,179.2,262.1,175.8,261.9z"/>
	<path class="st0" d="M249.1,306.9c-17.6-2.3-35.3-4.5-52.9-6.9c-4.8-0.7-7.5-4.5-6.8-8.8c0.7-4.4,4.3-7.1,9.1-6.6
		c17.5,2.1,35,4.3,52.4,6.6c4.7,0.6,7.4,4.2,6.9,8.7C257.4,304.4,253.9,307.2,249.1,306.9z"/>
	<path class="st0" d="M208.5,250.2c15.3,2,31.4,3.9,47.4,6.1c4.4,0.6,7.1,4.6,6.5,8.6c-0.6,4.1-4.2,7.3-8.5,6.8
		c-16-1.9-32.1-3.9-48.1-6c-4.5-0.6-7.2-4.5-6.8-8.5C199.5,252.9,203,250.1,208.5,250.2z"/>
	<path class="st0" d="M95.3,323.3c-13.8-1.7-28.5-3.5-43.2-5.4c-4.4-0.6-7.2-4.5-6.7-8.6c0.5-4.3,4.1-7.5,8.8-7
		c14.5,1.7,29.1,3.6,43.6,5.6c4.9,0.7,7.6,4.4,7,8.7C104.2,320.7,100.8,323.4,95.3,323.3z"/>
	<path class="st0" d="M65,232.2c8,1,16.7,2,25.5,3.2c5.1,0.7,7.9,4.3,7.4,8.9c-0.5,4.5-4.2,7.3-9.4,6.7c-8.8-1-17.5-2.1-26.3-3.3
		c-5.6-0.8-8.7-4.4-8-8.9C54.9,234,58.3,231.7,65,232.2z"/>
</g>
</svg>
