<?xml version="1.0" encoding="utf-8"?>
<!-- Generator: Adobe Illustrator 19.0.1, SVG Export Plug-In . SVG Version: 6.00 Build 0)  -->
<svg version="1.1" id="Слой_1" xmlns="http://www.w3.org/2000/svg" xmlns:xlink="http://www.w3.org/1999/xlink" x="0px" y="0px"
	 viewBox="0 0 510.9 510.9" style="enable-background:new 0 0 510.9 510.9;" xml:space="preserve">
<style type="text/css">
	.st0{fill:#222222;}
</style>
<g>
	<path class="st0" d="M402.2,173.3c0.1,12.3-5.3,20.8-16.6,23.9c-9.2,2.6-18.9,3.8-28.4,5c-19.6,2.4-31.6,15.2-32.5,36.1
		c0.8-1.6,1.4-2.6,1.9-3.5c14-27.4,51.2-30.4,68.8-5.1c12.7,18.3,13.1,38.2,2.8,57.7c-7.1,13.5-19.8,19.6-34.4,20.9
		c-7.3,0.6-15.2,0.4-22.2-1.4c-16.5-4.3-25.3-16.7-28.8-32.7c-4.2-19.3-3.7-38.8,0.8-58c5.1-22.2,21.9-35.3,44.7-36.8
		c6.1-0.4,13.2,0,18-2.9C385,171.2,393.7,175,402.2,173.3z M379.9,260.6c-1.1-5.3-1.7-10.8-3.4-16c-3-8.8-9.6-13.2-18.5-13.3
		c-8.9-0.1-15.3,4.1-18.7,13c-4,10.3-3.9,20.9-0.6,31.3c2.8,8.9,9.8,13.8,18.7,13.9c9.3,0.1,16.2-4.5,19.3-13.6
		C378.2,271,378.8,265.9,379.9,260.6z"/>
	<path class="st0" d="M131.7,295.7c0,14.8,0,28.9,0,43.4c-8.6,0-16.8,0-25.5,0c0-42,0-84,0-126.3c8,0,15.7,0,24.1,0
		c0,3.5,0,7,0,11.4c15.3-22.3,55.3-18.5,66.7,11.5c4.2,11.1,5.7,22.6,3.6,34.4c-1,5.8-2.6,11.8-5.2,17.1
		c-12.1,24.7-43.1,29.3-62.2,9.6C133.1,296.4,132.8,296.3,131.7,295.7z M176.4,259.3c-1.3-5.3-2-11.7-4.4-17.4
		c-3.6-8.6-10.6-12.9-20.2-12.5c-9.2,0.5-15.3,5.4-18.3,13.8c-3.9,10.8-4,21.9,0,32.7c3.4,9.2,10.6,13.8,20.5,13.6
		c9.3-0.2,16.4-5.2,19.3-14.5C174.9,270.3,175.3,265.3,176.4,259.3z"/>
	<path class="st0" d="M215.3,338.5c0-6.8,0-12.8,0-18.8c0-0.6,0.2-1.3,0.3-2.3c3.1,0.2,6,0.4,9,0.6c13.2,0.9,18.6-6.4,14-18.8
		c-9.5-25.7-19.2-51.4-28.7-77.1c-1.1-3.1-2.2-6.2-3.5-9.7c8.6,0,16.6-0.2,24.5,0.2c1.4,0.1,3.5,2.1,4,3.7
		c6.3,18.4,12.3,36.9,18.4,55.4c0.5,1.4,1,2.8,1.9,5.4c7.1-22.1,13.9-43.2,20.7-64.4c8.9,0,17.5,0,26.6,0
		c-3.7,10.1-7.4,19.9-11,29.7c-9.3,24.9-18.5,49.9-27.9,74.8c-6.1,16.4-14.5,22.3-32,22.3C226.4,339.4,221.1,338.8,215.3,338.5z"/>
	<g>
		<path class="st0" d="M255.5,15c32.5,0,64,6.4,93.6,18.9c28.6,12.1,54.3,29.4,76.4,51.5c22.1,22.1,39.4,47.8,51.5,76.4
			c12.5,29.6,18.9,61.1,18.9,93.6s-6.4,64-18.9,93.6c-12.1,28.6-29.4,54.3-51.5,76.4c-22.1,22.1-47.8,39.4-76.4,51.5
			c-29.6,12.5-61.1,18.9-93.6,18.9s-64-6.4-93.6-18.9c-28.6-12.1-54.3-29.4-76.4-51.5C63.3,403.4,46,377.7,33.9,349
			C21.4,319.4,15,287.9,15,255.5s6.4-64,18.9-93.6c12.1-28.6,29.4-54.3,51.5-76.4c22.1-22.1,47.8-39.4,76.4-51.5
			C191.5,21.4,223,15,255.5,15 M255.5,0C114.4,0,0,114.4,0,255.5s114.4,255.5,255.5,255.5s255.5-114.4,255.5-255.5S396.5,0,255.5,0
			L255.5,0z"/>
	</g>
</g>
</svg>
