<?xml version="1.0" encoding="utf-8"?>
<!-- Generator: Adobe Illustrator 19.0.1, SVG Export Plug-In . SVG Version: 6.00 Build 0)  -->
<svg version="1.1" id="Слой_1" xmlns="http://www.w3.org/2000/svg" xmlns:xlink="http://www.w3.org/1999/xlink" x="0px" y="0px"
	 viewBox="0 0 512 447.7" style="enable-background:new 0 0 512 447.7;" xml:space="preserve">
<style type="text/css">
	.st0{fill:#222222;}
</style>
<g>
	<path class="st0" d="M512,167.9c-3.4,6.4-8.7,8.3-15.7,7.9c-6.8-0.4-13.7,0-20.5-0.1c-7.2-0.1-11.5-4.4-11.6-11.6
		c-0.1-18.8-0.1-37.7,0-56.5c0-7,4.2-11.2,11.1-11.5c1.3-0.1,2.7,0,4.8,0c0-4.8,0.2-9.4-0.2-13.9c-0.1-0.9-2.2-2.4-3.4-2.4
		c-9.3-0.2-18.6-0.1-28.6-0.1c0,63.3,0,126.3,0,189.3c-8.1-3.8-15.5-8.4-23.4-10.7c-6.6-2-9.5-5.2-12.3-11.4
		c-11.2-25.1-30.9-38.9-58.7-39.1c-65-0.4-130-0.1-195-0.1c-27.6,0-51.6,17-60.5,43.1c-1.2,3.4-2.8,4.8-6.2,6
		c-9.3,3.4-18.3,7.6-27.6,11.5c0-62.2,0-125,0-188.6c-10.2,0-20-0.1-29.7,0.1c-1,0-2.6,2-2.7,3.2c-0.3,4.1-0.1,8.3-0.1,12.1
		c0.7,0.4,1,0.7,1.2,0.8c12.4,0.9,14.7,3.5,14.8,16.1c0,16.8,0,33.7,0,50.5c0,9.1-4,13.1-13.1,13.1c-6.3,0-12.7-0.3-19,0.1
		c-7,0.5-12.3-1.5-15.7-7.9c0-21.3,0-42.7,0-64c3.4-6.4,8.9-8.9,16.2-7.7c0-7.2,0-13.6,0-19.9c0-8.4,3.8-12.2,12.2-12.2
		c11.2,0,22.3-0.1,33.5,0.1c3.3,0.1,4.7-1.1,6.3-4c3.6-6.5,7.4-13.1,12.3-18.6C89.6,31.3,101.6,25,114.2,20
		C147,6.9,181.5,3.2,216.3,1.2c40.3-2.3,80.6-1.5,120.6,3.8c22.5,3,44.6,7.6,65.4,16.9c18.7,8.4,34.7,19.7,42.6,39.9
		c0.5,1.2,3.1,2.1,4.7,2.2c11.3,0.2,22.6,0.1,34,0.1c8.3,0,12.2,3.9,12.2,12.3c0,6.4,0,12.9,0,19.2c11.4,1.4,11.4,1.4,16.2,8.3
		C512,125.2,512,146.5,512,167.9z M239.9,175.9c0-27,0-53.4,0-80c-1.8-0.1-3.3-0.2-4.7-0.2c-43.3,0-86.6,0-129.9,0
		c-7.4,0-9.5,2.1-9.5,9.5c0,20.3,0,40.6,0,61c0,8,2,10,10,10c43.1,0,86.3,0,129.4,0C236.6,176.1,238.1,176,239.9,175.9z M272,175.8
		c1.5,0.1,2.5,0.2,3.5,0.2c44.1,0,88.2,0,132.4,0c6,0,8.4-2.5,8.4-8.6c0-20.8,0-41.6,0-62.4c0-7.3-2.1-9.4-9.6-9.4
		c-43.3,0-86.6,0-129.9,0c-1.6,0-3.2,0.2-4.8,0.2C272,122.8,272,149.1,272,175.8z M255.9,64.1c13.8,0,27.6,0,41.5,0
		c4.2,0,6.8-1.6,6.8-6c0.1-6.8,0.1-13.7,0-20.5c0-3.8-2-5.9-5.9-5.9c-28.1,0-56.3,0-84.4,0c-4.1,0-6.1,2.1-6.1,6.2
		c0,6.2-0.1,12.3,0,18.5c0,6.1,1.6,7.7,7.6,7.7C228.9,64.1,242.4,64.1,255.9,64.1z M159.7,65.8c9.8,0.1,18.2-8.2,18.2-18.1
		c0-9.4-8-17.5-17.5-17.8c-9.8-0.3-18.3,7.9-18.5,17.8C141.9,57.3,150.1,65.7,159.7,65.8z M370,47.6c-0.2-9.8-8.9-18.1-18.5-17.8
		c-9.6,0.4-17.7,8.7-17.5,18.2c0.2,9.8,8.9,18.1,18.5,17.8C362.1,65.5,370.2,57.1,370,47.6z"/>
	<path class="st0" d="M463.8,367.5c13.2,2.3,16,5.6,16,18.7c0,4.8,0,9.7,0,14.5c-0.1,9.7-5.2,14.9-14.8,15c-5.5,0-11,0-17.2,0
		c0,4.9,0,9.5,0,14.1c-0.1,11.6-6.3,17.9-18,17.9c-9.3,0-18.7,0-28,0c-11.2,0-17.5-6.4-17.6-17.8c0-4.5,0-9,0-13.8
		c-85.5,0-170.7,0-256.4,0c0,4.8,0,9.4,0,14c-0.1,11-6.4,17.5-17.3,17.6c-9.8,0.1-19.7,0.1-29.5,0c-10-0.1-16.6-6.6-16.8-16.6
		c-0.1-5,0-9.9,0-15.4c-6.1,0-11.8,0.1-17.4,0c-9.3-0.1-14.5-5.3-14.6-14.6c-0.1-5.5,0-11,0-16.5c0-11.3,3.9-15.6,16-16.8
		c0-4.2-0.1-8.4,0-12.7c0.4-10.6-0.4-21.5,1.5-31.9c5.4-28.8,28.7-48.5,58.8-51.1c1-0.1,2-0.2,3.2-0.3c0.6-3.8,1-7.6,1.9-11.2
		c5.3-21.6,24-36.5,46.6-36.5c55.8-0.1,111.7-0.1,167.5,0c9.7,0,19.4-0.7,29,0.4c24.3,2.9,40.1,19.7,43,44.1c0.1,1,0.2,1.9,0.3,2.7
		c6.3,1.2,12.4,1.9,18.2,3.6c26.9,7.9,45.2,32.2,45.5,60.2C463.9,346,463.8,356.8,463.8,367.5z M255.5,288.1c2.7,0,5.3,0,8,0
		c21.2,0,42.3,0,63.5,0c6.3,0,10.1-4.2,9.2-9.6c-0.7-4.3-4.2-6.7-9.6-6.8c-25.5,0-51,0-76.5,0c-21.7,0-43.3,0-65,0
		c-6.3,0-10.1,4.2-9.2,9.6c0.7,4.3,4.1,6.7,9.6,6.8C208.8,288.1,232.1,288.1,255.5,288.1z M256,320.1c23.5,0,47,0,70.4,0
		c6.2,0,9.7-3,9.7-8.2c0-5.1-3.6-8.2-9.7-8.2c-46.8,0-93.6,0-140.4,0c-6.7,0-10.2,2.9-10.2,8.2c0,5.3,3.6,8.2,10.2,8.2
		C209.4,320.1,232.7,320.1,256,320.1z M255.7,352.1c23.8,0,47.6,0,71.5,0c5.7,0,9.2-3.4,9-8.4c-0.1-4.8-3.5-8-9-8
		c-47.5,0-94.9,0-142.4,0.1c-2,0-5,0.6-5.8,1.9c-1.6,2.6-3.1,6.1-2.6,8.8c0.7,4.1,4.5,5.7,8.8,5.6
		C208.7,352.1,232.2,352.1,255.7,352.1z M130,328.3c0.3-14.1-11.5-26.2-25.8-26.4c-13.9-0.2-25.9,11.5-26.2,25.5
		c-0.2,14.2,11.5,26.3,25.8,26.5C117.6,354,129.6,342.3,130,328.3z M408,301.9c-14.4,0.2-26,11.9-25.9,26.3
		c0.1,13.9,12.1,25.7,26,25.7c14.1,0,26.2-12.2,26-26.3C433.8,313.6,421.7,301.7,408,301.9z"/>
</g>
</svg>
