<?xml version="1.0" encoding="utf-8"?>
<!-- Generator: Adobe Illustrator 19.0.1, SVG Export Plug-In . SVG Version: 6.00 Build 0)  -->
<svg version="1.1" id="Слой_1" xmlns="http://www.w3.org/2000/svg" xmlns:xlink="http://www.w3.org/1999/xlink" x="0px" y="0px"
	 viewBox="0 0 463.6 463.6" style="enable-background:new 0 0 463.6 463.6;" xml:space="preserve">
<style type="text/css">
	.st0{fill:#222222;}
</style>
<g>
	<path class="st0" d="M140.1,231.7c0-35.8,0-71.6,0-107.4c0-15.4,10.8-21.8,24.2-14.5c65.8,35.9,131.6,71.9,197.4,107.7
		c5.8,3.2,9.6,7.5,9.7,14.1c0.1,6.9-3.9,11.3-9.9,14.6c-65.7,35.7-131.3,71.6-196.9,107.4c-13.8,7.5-24.5,1.2-24.5-14.4
		C140.1,303.3,140.1,267.5,140.1,231.7z"/>
</g>
<g>
	<path class="st0" d="M231.8,18.9c28.7,0,56.6,5.6,82.9,16.7c25.3,10.7,48.1,26.1,67.7,45.6c19.6,19.6,34.9,42.3,45.6,67.7
		c11.1,26.2,16.7,54.1,16.7,82.9s-5.6,56.6-16.7,82.9c-10.7,25.3-26.1,48.1-45.6,67.7c-19.6,19.6-42.3,34.9-67.7,45.6
		c-26.2,11.1-54.1,16.7-82.9,16.7c-28.7,0-56.6-5.6-82.9-16.7c-25.3-10.7-48.1-26.1-67.7-45.6c-19.6-19.6-34.9-42.3-45.6-67.7
		c-11.1-26.2-16.7-54.1-16.7-82.9s5.6-56.6,16.7-82.9c10.7-25.3,26.1-48.1,45.6-67.7c19.6-19.6,42.3-34.9,67.7-45.6
		C175.1,24.5,203,18.9,231.8,18.9 M231.8,0C103.8,0,0,103.8,0,231.8s103.8,231.8,231.8,231.8s231.8-103.8,231.8-231.8
		S359.8,0,231.8,0L231.8,0z"/>
</g>
</svg>
